<svg width="22" height="23" viewBox="0 0 22 23" fill="none" xmlns="http://www.w3.org/2000/svg">
<path d="M3.1838 7.69689C5.07153 6.07606 6.5627 4.79452 10.6094 7.08098C12.5533 8.17882 14.1212 8.59375 15.4254 8.59159C17.7108 8.59159 19.1922 7.32086 20.4727 6.22193C20.6925 6.03073 20.8291 5.76146 20.8538 5.47119C20.8784 5.18093 20.789 4.89248 20.6045 4.66701C20.5145 4.55637 20.4033 4.4649 20.2773 4.39801C20.1514 4.33112 20.0133 4.29017 19.8713 4.27757C19.7292 4.26498 19.5861 4.281 19.4503 4.32469C19.3146 4.36839 19.189 4.43886 19.0809 4.53194C17.1943 6.15494 15.702 7.43648 11.6554 5.14786C6.30876 2.12987 3.80404 4.28018 1.79204 6.00906C1.57242 6.20041 1.43594 6.46976 1.41154 6.76003C1.38713 7.05029 1.47671 7.33865 1.6613 7.56398C1.75133 7.67443 1.86261 7.7657 1.98854 7.83238C2.11447 7.89907 2.2525 7.93981 2.39446 7.9522C2.53642 7.96459 2.67942 7.94838 2.815 7.90453C2.95058 7.86068 3.07599 7.79007 3.1838 7.69689ZM19.0809 10.0503C17.1943 11.6712 15.702 12.9549 11.6554 10.6663C6.30876 7.6461 3.80404 9.79749 1.79204 11.5253C1.57242 11.7166 1.43594 11.986 1.41154 12.2763C1.38713 12.5665 1.47671 12.8549 1.6613 13.0802C1.75117 13.1908 1.86233 13.2823 1.98819 13.3492C2.11404 13.416 2.25203 13.457 2.394 13.4696C2.53596 13.4822 2.67901 13.4662 2.81467 13.4225C2.95033 13.3788 3.07585 13.3083 3.1838 13.2153C5.07153 11.5934 6.5627 10.3118 10.6094 12.5972C12.5533 13.6972 14.1212 14.11 15.4254 14.11C17.7108 14.11 19.1922 12.8393 20.4727 11.7382C20.6926 11.5473 20.8295 11.2782 20.8541 10.988C20.8787 10.6978 20.7892 10.4095 20.6045 10.1843C20.5145 10.0736 20.4033 9.98214 20.2773 9.91526C20.1513 9.84839 20.0132 9.80749 19.8711 9.79499C19.729 9.78249 19.5858 9.79866 19.4501 9.84252C19.3144 9.88638 19.1888 9.95705 19.0809 10.0503ZM19.0809 15.5677C17.1943 17.1907 15.702 18.4722 11.6554 16.1857C6.30876 13.1656 3.80404 15.3159 1.79204 17.0448C1.57242 17.2361 1.43594 17.5055 1.41154 17.7957C1.38713 18.086 1.47671 18.3744 1.6613 18.5997C1.75124 18.7103 1.86248 18.8017 1.98842 18.8684C2.11435 18.9352 2.25242 18.976 2.39442 18.9884C2.53642 19.0008 2.67946 18.9845 2.81506 18.9406C2.95066 18.8967 3.07605 18.8259 3.1838 18.7326C5.07153 17.1118 6.5627 15.8313 10.6094 18.1167C12.5533 19.2145 14.1212 19.6295 15.4254 19.6295C17.7108 19.6295 19.1922 18.3566 20.4727 17.2576C20.6925 17.0664 20.8291 16.7972 20.8538 16.5069C20.8784 16.2166 20.789 15.9282 20.6045 15.7027C20.5145 15.5922 20.4032 15.5009 20.2772 15.4341C20.1513 15.3672 20.0132 15.3263 19.8712 15.3138C19.7292 15.3012 19.5861 15.3171 19.4504 15.3608C19.3147 15.4044 19.189 15.4747 19.0809 15.5677Z" fill="#111111"/>
</svg>
