<svg width="21" height="17" viewBox="0 0 21 17" fill="none" xmlns="http://www.w3.org/2000/svg">
<path fill-rule="evenodd" clip-rule="evenodd" d="M11.6682 3.06762C11.3183 2.99526 10.9559 2.95724 10.5846 2.95724C7.83595 2.95724 5.57388 5.04048 5.29118 7.71417C5.1522 7.69763 5.01075 7.68912 4.86732 7.68912C3.57571 7.68912 2.44527 8.37914 1.8245 9.41065C0.755961 8.98856 0 7.94652 0 6.72792C0 5.13548 1.29093 3.84456 2.88336 3.84456C2.99996 3.84456 3.11495 3.85148 3.22792 3.86493C3.45764 1.6926 5.29555 0 7.52878 0C9.4801 0 11.1296 1.29223 11.6682 3.06762Z" fill="black"/>
<path d="M5.97374 15.526V14.9715L5.97214 14.9715L5.97374 15.526ZM6.36136 8.89558L6.29581 9.44619L6.85372 9.51261L6.91279 8.95388L6.36136 8.89558ZM16.2865 8.8956L15.735 8.95389L15.7941 9.51265L16.352 9.44621L16.2865 8.8956ZM16.6742 15.526L16.6758 14.9715H16.6742V15.526ZM5.97214 14.9715C5.96939 14.9715 5.96664 14.9715 5.96388 14.9715V16.0805C5.96771 16.0805 5.97153 16.0805 5.97535 16.0805L5.97214 14.9715ZM5.96388 14.9715C4.43269 14.9715 3.19142 13.7302 3.19142 12.199H2.08243C2.08243 14.3427 3.82021 16.0805 5.96388 16.0805V14.9715ZM3.19142 12.199C3.19142 10.6679 4.43269 9.42658 5.96388 9.42658V8.31759C3.82021 8.31759 2.08243 10.0554 2.08243 12.199H3.19142ZM5.96388 9.42658C6.07643 9.42658 6.18719 9.43326 6.29581 9.44619L6.42691 8.34498C6.27488 8.32688 6.12035 8.31759 5.96388 8.31759V9.42658ZM6.91279 8.95388C7.14826 6.72635 9.03372 4.99036 11.3239 4.99036V3.88137C8.46037 3.88137 6.10442 6.05156 5.80994 8.83729L6.91279 8.95388ZM11.3239 4.99036C13.6141 4.99036 15.4996 6.72636 15.735 8.95389L16.8379 8.83731C16.5434 6.05157 14.1875 3.88137 11.3239 3.88137V4.99036ZM16.352 9.44621C16.4607 9.43327 16.5715 9.42658 16.6841 9.42658V8.31759C16.5275 8.31759 16.373 8.32689 16.2209 8.345L16.352 9.44621ZM16.6841 9.42658C18.2153 9.42658 19.4565 10.6679 19.4565 12.199H20.5655C20.5655 10.0554 18.8277 8.31759 16.6841 8.31759V9.42658ZM19.4565 12.199C19.4565 13.7302 18.2153 14.9715 16.6841 14.9715V16.0805C18.8277 16.0805 20.5655 14.3427 20.5655 12.199H19.4565ZM16.6841 14.9715C16.6813 14.9715 16.6786 14.9715 16.6758 14.9715L16.6726 16.0805C16.6764 16.0805 16.6802 16.0805 16.6841 16.0805V14.9715ZM16.6742 14.9715H5.97374V16.0805H16.6742V14.9715Z" fill="black"/>
</svg>
