<svg width="19" height="21" viewBox="0 0 19 21" fill="none" xmlns="http://www.w3.org/2000/svg">
<path d="M16.1911 1.35935C16.4978 1.35935 16.792 1.50257 17.0089 1.7575C17.2258 2.01243 17.3476 2.35819 17.3476 2.71871V13.5935C17.3476 13.9541 17.2258 14.2998 17.0089 14.5548C16.792 14.8097 16.4978 14.9529 16.1911 14.9529H13.2997C12.9407 14.9529 12.5865 15.0512 12.2653 15.2399C11.9441 15.4287 11.6647 15.7027 11.4493 16.0404L9.25185 19.4836L7.05442 16.0404C6.83896 15.7027 6.55958 15.4287 6.23839 15.2399C5.91721 15.0512 5.56305 14.9529 5.20395 14.9529H2.3126C2.00586 14.9529 1.71169 14.8097 1.4948 14.5548C1.2779 14.2998 1.15605 13.9541 1.15605 13.5935V2.71871C1.15605 2.35819 1.2779 2.01243 1.4948 1.7575C1.71169 1.50257 2.00586 1.35935 2.3126 1.35935H16.1911ZM2.3126 0C1.69913 0 1.11079 0.286435 0.676998 0.796292C0.243211 1.30615 -0.000488281 1.99766 -0.000488281 2.71871L-0.000488281 13.5935C-0.000488281 14.3146 0.243211 15.0061 0.676998 15.516C1.11079 16.0258 1.69913 16.3123 2.3126 16.3123H5.20395C5.3835 16.3123 5.56058 16.3614 5.72117 16.4558C5.88176 16.5501 6.02146 16.6872 6.12918 16.856L8.32661 20.2992C8.43434 20.4681 8.57403 20.6051 8.73463 20.6995C8.89522 20.7939 9.0723 20.843 9.25185 20.843C9.4314 20.843 9.60848 20.7939 9.76907 20.6995C9.92966 20.6051 10.0694 20.4681 10.1771 20.2992L12.3745 16.856C12.4822 16.6872 12.6219 16.5501 12.7825 16.4558C12.9431 16.3614 13.1202 16.3123 13.2997 16.3123H16.1911C16.8046 16.3123 17.3929 16.0258 17.8267 15.516C18.2605 15.0061 18.5042 14.3146 18.5042 13.5935V2.71871C18.5042 1.99766 18.2605 1.30615 17.8267 0.796292C17.3929 0.286435 16.8046 0 16.1911 0L2.3126 0Z" fill="black"/>
<path d="M3.46924 4.75805C3.46924 4.57778 3.53016 4.40491 3.63861 4.27744C3.74706 4.14998 3.89414 4.07837 4.04751 4.07837H14.4564C14.6098 4.07837 14.7568 4.14998 14.8653 4.27744C14.9737 4.40491 15.0347 4.57778 15.0347 4.75805C15.0347 4.93831 14.9737 5.11119 14.8653 5.23865C14.7568 5.36612 14.6098 5.43772 14.4564 5.43772H4.04751C3.89414 5.43772 3.74706 5.36612 3.63861 5.23865C3.53016 5.11119 3.46924 4.93831 3.46924 4.75805ZM3.46924 8.15643C3.46924 7.97617 3.53016 7.80329 3.63861 7.67583C3.74706 7.54837 3.89414 7.47676 4.04751 7.47676H14.4564C14.6098 7.47676 14.7568 7.54837 14.8653 7.67583C14.9737 7.80329 15.0347 7.97617 15.0347 8.15643C15.0347 8.3367 14.9737 8.50957 14.8653 8.63704C14.7568 8.7645 14.6098 8.83611 14.4564 8.83611H4.04751C3.89414 8.83611 3.74706 8.7645 3.63861 8.63704C3.53016 8.50957 3.46924 8.3367 3.46924 8.15643ZM3.46924 11.5548C3.46924 11.3746 3.53016 11.2017 3.63861 11.0742C3.74706 10.9468 3.89414 10.8751 4.04751 10.8751H9.83022C9.98359 10.8751 10.1307 10.9468 10.2391 11.0742C10.3476 11.2017 10.4085 11.3746 10.4085 11.5548C10.4085 11.7351 10.3476 11.908 10.2391 12.0354C10.1307 12.1629 9.98359 12.2345 9.83022 12.2345H4.04751C3.89414 12.2345 3.74706 12.1629 3.63861 12.0354C3.53016 11.908 3.46924 11.7351 3.46924 11.5548Z" fill="black"/>
</svg>
