<svg width="28" height="28" viewBox="0 0 28 28" fill="none" xmlns="http://www.w3.org/2000/svg">
<path d="M22.0988 25.9115H18.722C18.2747 25.9102 17.846 25.7319 17.5297 25.4155C17.2133 25.0992 17.035 24.6705 17.0337 24.2231V18.3139C16.5863 18.3125 16.1576 18.1342 15.8413 17.8179C15.5249 17.5015 15.3466 17.0729 15.3453 16.6255V11.5604C15.3391 11.2261 15.4004 10.894 15.5255 10.5839C15.6506 10.2739 15.8369 9.99224 16.0733 9.75582C16.3097 9.51941 16.5914 9.33309 16.9014 9.20801C17.2115 9.08293 17.5436 9.02165 17.8779 9.02783H22.943C23.2772 9.02165 23.6093 9.08293 23.9194 9.20801C24.2295 9.33309 24.5111 9.51941 24.7475 9.75582C24.9839 9.99224 25.1702 10.2739 25.2953 10.5839C25.4204 10.894 25.4817 11.2261 25.4755 11.5604V16.6255C25.4742 17.0729 25.2959 17.5015 24.9795 17.8179C24.6632 18.1342 24.2345 18.3125 23.7871 18.3139V24.2231C23.7858 24.6705 23.6075 25.0992 23.2912 25.4155C22.9748 25.7319 22.5461 25.9102 22.0988 25.9115ZM17.8779 10.7162C17.7652 10.7094 17.6524 10.7266 17.547 10.7667C17.4415 10.8067 17.3457 10.8686 17.2659 10.9484C17.1861 11.0282 17.1242 11.124 17.0841 11.2295C17.0441 11.335 17.0269 11.4478 17.0337 11.5604V16.6255H18.722V24.2231H22.0988V16.6255H23.7871V11.5604C23.7939 11.4478 23.7767 11.335 23.7367 11.2295C23.6967 11.124 23.6347 11.0282 23.5549 10.9484C23.4751 10.8686 23.3793 10.8067 23.2739 10.7667C23.1684 10.7266 23.0556 10.7094 22.943 10.7162H17.8779ZM20.4104 8.18365C19.7425 8.18365 19.0897 7.98561 18.5344 7.61457C17.9791 7.24353 17.5463 6.71615 17.2907 6.09913C17.0351 5.48212 16.9683 4.80317 17.0986 4.14815C17.2288 3.49312 17.5504 2.89145 18.0227 2.4192C18.4949 1.94696 19.0966 1.62535 19.7516 1.49506C20.4067 1.36477 21.0856 1.43164 21.7026 1.68722C22.3196 1.94279 22.847 2.3756 23.2181 2.9309C23.5891 3.4862 23.7871 4.13906 23.7871 4.80691C23.7845 5.70166 23.4278 6.55899 22.7952 7.19167C22.1625 7.82436 21.3051 8.18098 20.4104 8.18365ZM20.4104 3.11855C20.0765 3.11855 19.75 3.21757 19.4724 3.40309C19.1947 3.58861 18.9783 3.85229 18.8506 4.1608C18.7228 4.46931 18.6893 4.80879 18.7545 5.1363C18.8196 5.46381 18.9804 5.76465 19.2165 6.00077C19.4527 6.23689 19.7535 6.39769 20.081 6.46284C20.4085 6.52799 20.748 6.49455 21.0565 6.36676C21.365 6.23897 21.6287 6.02257 21.8142 5.74492C21.9998 5.46727 22.0988 5.14084 22.0988 4.80691C22.0974 4.35954 21.9191 3.93087 21.6028 3.61453C21.2864 3.29819 20.8578 3.11988 20.4104 3.11855ZM8.59183 17.625V10.7162H6.90346V17.625C6.34021 17.8241 5.86549 18.216 5.56321 18.7313C5.26092 19.2466 5.15054 19.8522 5.25157 20.441C5.35259 21.0298 5.65852 21.5639 6.11528 21.949C6.57204 22.3341 7.15023 22.5453 7.74765 22.5453C8.34506 22.5453 8.92325 22.3341 9.38001 21.949C9.83677 21.5639 10.1427 21.0298 10.2437 20.441C10.3447 19.8522 10.2344 19.2466 9.93208 18.7313C9.6298 18.216 9.15508 17.8241 8.59183 17.625Z" fill="#111111"/>
<path d="M7.74755 25.9116C6.58424 25.9129 5.44648 25.5705 4.47713 24.9273C3.50778 24.2841 2.75006 23.3689 2.29911 22.2966C1.84816 21.2242 1.7241 20.0426 1.94249 18.8999C2.16088 17.7573 2.71199 16.7047 3.52663 15.8742V6.49533C3.52663 5.37588 3.97133 4.30227 4.76291 3.51069C5.55448 2.71912 6.62809 2.27441 7.74755 2.27441C8.867 2.27441 9.94061 2.71912 10.7322 3.51069C11.5238 4.30227 11.9685 5.37588 11.9685 6.49533V15.8742C12.7831 16.7047 13.3342 17.7573 13.5526 18.8999C13.771 20.0426 13.6469 21.2242 13.196 22.2966C12.745 23.3689 11.9873 24.2841 11.018 24.9273C10.0486 25.5705 8.91085 25.9129 7.74755 25.9116ZM7.74755 3.96278C7.07608 3.96345 6.4323 4.23049 5.9575 4.70529C5.4827 5.18009 5.21567 5.82387 5.21499 6.49533V16.6112L4.93473 16.8636C4.29726 17.4334 3.84785 18.1833 3.64598 19.0141C3.4441 19.8449 3.49928 20.7174 3.80421 21.5161C4.10914 22.3149 4.64944 23.0022 5.3536 23.4871C6.05776 23.972 6.89258 24.2316 7.74755 24.2316C8.60252 24.2316 9.43733 23.972 10.1415 23.4871C10.8457 23.0022 11.386 22.3149 11.6909 21.5161C11.9958 20.7174 12.051 19.8449 11.8491 19.0141C11.6472 18.1833 11.1978 17.4334 10.5604 16.8636L10.2801 16.6112V6.49533C10.2794 5.82387 10.0124 5.18009 9.53759 4.70529C9.06279 4.23049 8.41902 3.96345 7.74755 3.96278Z" fill="#111111"/>
</svg>
