<svg width="23" height="18" viewBox="0 0 23 18" fill="none" xmlns="http://www.w3.org/2000/svg">
<path d="M9.65092 2.03115L9.77936 1.28441M1.02748 7.46747L1.77423 7.59591M14.1837 4.73288L15.4964 3.80542M1.49345 13.6983L2.80623 12.7709M3.5485 1.75037L4.47596 3.06316" stroke="#111111" stroke-width="1.44485" stroke-linecap="round"/>
<path d="M6.0118 10.8816C5.06164 10.1642 3.98974 7.54386 6.0118 5.7952C7.80604 4.24356 10.0085 5.20839 10.755 6.38219" stroke="black" stroke-width="1.04081" stroke-linecap="square"/>
<path d="M9.36478 16.9999V16.3313L9.35856 16.3314L9.36478 16.9999ZM9.6883 11.1374L9.60925 11.8013L10.2819 11.8814L10.3532 11.2077L9.6883 11.1374ZM18.4641 11.1375L17.7992 11.2078L17.8705 11.8815L18.5432 11.8013L18.4641 11.1375ZM18.7877 16.9999L18.7939 16.3314H18.7877V16.9999ZM9.35856 16.3314C9.35129 16.3315 9.34402 16.3315 9.33676 16.3315V17.6686C9.3482 17.6686 9.35962 17.6686 9.371 17.6685L9.35856 16.3314ZM9.33676 16.3315C8.08135 16.3315 7.06363 15.3138 7.06363 14.0584H5.72649C5.72649 16.0523 7.34286 17.6686 9.33676 17.6686V16.3315ZM7.06363 14.0584C7.06363 12.8029 8.08134 11.7852 9.33676 11.7852V10.4481C7.34286 10.4481 5.72649 12.0645 5.72649 14.0584H7.06363ZM9.33676 11.7852C9.42924 11.7852 9.52016 11.7907 9.60925 11.8013L9.76736 10.4736C9.62592 10.4567 9.48221 10.4481 9.33676 10.4481V11.7852ZM10.3532 11.2077C10.5519 9.32796 12.1434 7.86284 14.0762 7.86284V6.5257C11.4521 6.5257 9.29338 8.51432 9.02344 11.0671L10.3532 11.2077ZM14.0762 7.86284C16.009 7.86284 17.6005 9.32796 17.7992 11.2078L19.1289 11.0672C18.859 8.51432 16.7003 6.5257 14.0762 6.5257V7.86284ZM18.5432 11.8013C18.6323 11.7907 18.7232 11.7852 18.8157 11.7852V10.4481C18.6702 10.4481 18.5265 10.4567 18.385 10.4736L18.5432 11.8013ZM18.8157 11.7852C20.0711 11.7852 21.0888 12.8029 21.0888 14.0584H22.426C22.426 12.0645 20.8096 10.4481 18.8157 10.4481V11.7852ZM21.0888 14.0584C21.0888 15.3138 20.0711 16.3315 18.8157 16.3315V17.6686C20.8096 17.6686 22.426 16.0523 22.426 14.0584H21.0888ZM18.8157 16.3315C18.8084 16.3315 18.8012 16.3315 18.7939 16.3314L18.7815 17.6685C18.7928 17.6686 18.8043 17.6686 18.8157 17.6686V16.3315ZM18.7877 16.3314H9.36478V17.6685H18.7877V16.3314Z" fill="black"/>
</svg>
