<svg width="22" height="21" viewBox="0 0 22 21" fill="none" xmlns="http://www.w3.org/2000/svg">
<path d="M6.56979 19.8055V19.2055L6.56261 19.2056L6.56979 19.8055ZM6.92292 13.2454L6.85198 13.8412L7.45566 13.9131L7.51959 13.3085L6.92292 13.2454ZM16.7431 13.2455L16.1464 13.3086L16.2103 13.9132L16.8141 13.8413L16.7431 13.2455ZM17.0965 19.8055L17.1037 19.2055H17.0965V19.8055ZM6.56261 19.2056C6.55163 19.2057 6.54063 19.2058 6.5296 19.2058V20.4058C6.5454 20.4058 6.5612 20.4057 6.57698 20.4055L6.56261 19.2056ZM6.5296 19.2058C5.04297 19.2058 3.83781 18.0006 3.83781 16.514H2.63781C2.63781 18.6633 4.38022 20.4058 6.5296 20.4058V19.2058ZM3.83781 16.514C3.83781 15.0273 5.04297 13.8222 6.5296 13.8222V12.6222C4.38022 12.6222 2.63781 14.3646 2.63781 16.514H3.83781ZM6.5296 13.8222C6.63894 13.8222 6.7465 13.8287 6.85198 13.8412L6.99386 12.6496C6.8414 12.6315 6.68646 12.6222 6.5296 12.6222V13.8222ZM7.51959 13.3085C7.74991 11.1305 9.59361 9.43303 11.833 9.43303V8.23303C8.97322 8.23303 6.62043 10.4003 6.32625 13.1823L7.51959 13.3085ZM11.833 9.43303C14.0724 9.43303 15.9161 11.1305 16.1464 13.3086L17.3397 13.1824C17.0456 10.4003 14.6928 8.23303 11.833 8.23303V9.43303ZM16.8141 13.8413C16.9196 13.8287 17.0273 13.8222 17.1367 13.8222V12.6222C16.9797 12.6222 16.8246 12.6315 16.6721 12.6497L16.8141 13.8413ZM17.1367 13.8222C18.6234 13.8222 19.8285 15.0273 19.8285 16.514H21.0285C21.0285 14.3646 19.2861 12.6222 17.1367 12.6222V13.8222ZM19.8285 16.514C19.8285 18.0006 18.6234 19.2058 17.1367 19.2058V20.4058C19.2861 20.4058 21.0285 18.6633 21.0285 16.514H19.8285ZM17.1367 19.2058C17.1257 19.2058 17.1147 19.2057 17.1037 19.2056L17.0893 20.4055C17.1051 20.4057 17.1209 20.4058 17.1367 20.4058V19.2058ZM17.0965 19.2055H6.56979V20.4055H17.0965V19.2055Z" fill="black"/>
<path d="M7.143 1.99896C7.07563 1.88878 7.04445 1.76068 7.05377 1.63232C7.06309 1.50397 7.11244 1.38167 7.19503 1.28229C7.27763 1.1829 7.38939 1.11133 7.51491 1.07743C7.64044 1.04352 7.77355 1.04896 7.8959 1.093C9.179 1.55523 10.2558 2.45131 10.9355 3.62259C11.6153 4.79387 11.8542 6.16477 11.6099 7.49256C11.1584 7.51531 10.7102 7.58209 10.272 7.69193C10.5033 6.8829 10.4998 6.02561 10.2617 5.21802C10.0236 4.41043 9.56062 3.68511 8.92565 3.12496C9.10556 3.96482 9.09185 4.83377 8.88553 5.66728C8.67922 6.50079 8.2856 7.27744 7.73391 7.93955C7.18222 8.60167 6.48663 9.13223 5.69881 9.49185C4.91098 9.85146 4.05116 10.0309 3.1832 10.0168C3.98114 10.6204 4.96007 10.9429 5.96415 10.933C5.74259 11.3176 5.55646 11.7264 5.41234 12.1532C4.50655 12.0737 3.63233 11.7838 2.86084 11.3072C2.08934 10.8306 1.44237 10.1808 0.972572 9.41054C0.905196 9.30036 0.874016 9.17227 0.883335 9.04391C0.892654 8.91556 0.942011 8.79326 1.0246 8.69387C1.10719 8.59449 1.21896 8.52292 1.34448 8.48901C1.47001 8.45511 1.60312 8.46055 1.72547 8.50458C2.60442 8.82186 3.56098 8.86185 4.4633 8.61904C5.36562 8.37622 6.16926 7.86256 6.76345 7.14887C7.35763 6.43517 7.7131 5.55658 7.78085 4.63421C7.84861 3.71183 7.62531 2.79109 7.14175 1.9989L7.143 1.99896Z" fill="#111111"/>
</svg>
