<svg width="25" height="25" viewBox="0 0 25 25" fill="none" xmlns="http://www.w3.org/2000/svg">
<path d="M13.9787 3.40046L13.9791 3.40073L19.7838 7.46202C20.222 7.76872 20.649 8.28189 20.9672 8.8913C21.2853 9.5007 21.4625 10.145 21.4625 10.6825V17.5153C21.4625 19.6882 19.6983 21.4524 17.5254 21.4524H6.66147C4.49067 21.4524 2.72438 19.6801 2.72438 17.5052V10.5515C2.72438 10.054 2.88444 9.44259 3.17449 8.85349C3.46436 8.26477 3.85343 7.76056 4.25157 7.45001L4.25173 7.44989L9.29876 3.51098C9.29909 3.51073 9.29941 3.51048 9.29973 3.51022C10.5725 2.52481 12.6549 2.47294 13.9787 3.40046ZM12.0935 19.6149C12.9037 19.6149 13.5682 18.9504 13.5682 18.1402V15.1168C13.5682 14.3066 12.9037 13.6421 12.0935 13.6421C11.2832 13.6421 10.6187 14.3066 10.6187 15.1168V18.1402C10.6187 18.9504 11.2832 19.6149 12.0935 19.6149Z" stroke="black" stroke-width="1.43778"/>
</svg>
