<svg width="25" height="25" viewBox="0 0 25 25" fill="none" xmlns="http://www.w3.org/2000/svg">
<path d="M20.1961 6.87308L14.3912 2.8117C12.809 1.70313 10.3802 1.7636 8.85845 2.94271L3.80943 6.88316C2.80165 7.66924 2.00549 9.2817 2.00549 10.5515V17.5052C2.00549 20.0751 4.09161 22.1713 6.66147 22.1713H17.5254C20.0953 22.1713 22.1814 20.0852 22.1814 17.5153V10.6825C22.1814 9.32201 21.3046 7.64908 20.1961 6.87308ZM12.8493 18.1402C12.8493 18.5533 12.5066 18.896 12.0935 18.896C11.6803 18.896 11.3376 18.5533 11.3376 18.1402V15.1168C11.3376 14.7036 11.6803 14.3609 12.0935 14.3609C12.5066 14.3609 12.8493 14.7036 12.8493 15.1168V18.1402Z" fill="black"/>
</svg>
