<svg width="25" height="25" viewBox="0 0 25 25" fill="none" xmlns="http://www.w3.org/2000/svg">
<path d="M19.2302 10.5946C19.2302 8.82133 18.5258 7.12074 17.2719 5.86688C16.0181 4.61302 14.3175 3.90862 12.5443 3.90862C10.771 3.90862 9.07044 4.61302 7.81659 5.86688C6.56273 7.12074 5.85832 8.82133 5.85832 10.5946C5.85832 13.3373 8.0528 16.912 12.5443 21.194C17.0357 16.912 19.2302 13.3373 19.2302 10.5946ZM12.5443 23.2235C7.09596 18.2715 4.37256 14.0608 4.37256 10.5946C4.37256 8.42728 5.2335 6.34878 6.76599 4.81629C8.29849 3.2838 10.377 2.42285 12.5443 2.42285C14.7115 2.42285 16.79 3.2838 18.3225 4.81629C19.855 6.34878 20.716 8.42728 20.716 10.5946C20.716 14.0608 17.9926 18.2715 12.5443 23.2235Z" fill="#6A6A6A"/>
<path d="M12.5439 12.8237C13.135 12.8237 13.7018 12.5889 14.1198 12.1709C14.5377 11.753 14.7725 11.1861 14.7725 10.595C14.7725 10.004 14.5377 9.43709 14.1198 9.01913C13.7018 8.60118 13.135 8.36638 12.5439 8.36638C11.9528 8.36638 11.3859 8.60118 10.968 9.01913C10.55 9.43709 10.3152 10.004 10.3152 10.595C10.3152 11.1861 10.55 11.753 10.968 12.1709C11.3859 12.5889 11.9528 12.8237 12.5439 12.8237ZM12.5439 14.3094C11.5588 14.3094 10.614 13.9181 9.91739 13.2215C9.22081 12.5249 8.82947 11.5801 8.82947 10.595C8.82947 9.6099 9.22081 8.66513 9.91739 7.96854C10.614 7.27195 11.5588 6.88062 12.5439 6.88062C13.529 6.88062 14.4738 7.27195 15.1704 7.96854C15.8669 8.66513 16.2583 9.6099 16.2583 10.595C16.2583 11.5801 15.8669 12.5249 15.1704 13.2215C14.4738 13.9181 13.529 14.3094 12.5439 14.3094Z" fill="#6A6A6A"/>
</svg>
