<svg width="20" height="17" viewBox="0 0 20 17" fill="none" xmlns="http://www.w3.org/2000/svg">
<path d="M15.4001 3.77512C15.6196 3.56373 15.8874 3.40905 16.1802 3.32445C16.4729 3.23986 16.7819 3.2279 17.0804 3.28962C17.3788 3.35134 17.6577 3.48487 17.8929 3.67866C18.1281 3.87245 18.3126 4.12065 18.4302 4.40177C18.5479 4.68289 18.5953 4.98845 18.5683 5.29201C18.5413 5.59556 18.4407 5.88796 18.2752 6.14388C18.1097 6.39979 17.8843 6.61152 17.6186 6.76072C17.3529 6.90992 17.0548 6.9921 16.7501 7.00014H3.62502M9.32506 1.4501C9.49882 1.27288 9.71384 1.14154 9.95085 1.06786C10.1879 0.994183 10.4394 0.980466 10.6831 1.02794C10.9267 1.07542 11.1547 1.1826 11.3467 1.33988C11.5387 1.49716 11.6887 1.69963 11.7832 1.92913C11.8777 2.15863 11.9137 2.40799 11.8882 2.65486C11.8626 2.90174 11.7761 3.13841 11.6366 3.34365C11.497 3.5489 11.3087 3.71631 11.0886 3.83089C10.8684 3.94546 10.6232 4.00361 10.3751 4.00012H3.62502M9.32506 15.5502C9.49882 15.7274 9.71384 15.8588 9.95085 15.9324C10.1879 16.0061 10.4394 16.0198 10.6831 15.9724C10.9267 15.9249 11.1547 15.8177 11.3467 15.6604C11.5387 15.5031 11.6887 15.3007 11.7832 15.0712C11.8777 14.8417 11.9137 14.5923 11.8882 14.3454C11.8626 14.0986 11.7761 13.8619 11.6366 13.6567C11.497 13.4514 11.3087 13.284 11.0886 13.1694C10.8684 13.0548 10.6232 12.9967 10.3751 13.0002H1.375" stroke="#111111" stroke-width="1.50001" stroke-linecap="round" stroke-linejoin="round"/>
<path d="M1 1H4.75003" stroke="black" stroke-width="1.50001" stroke-linecap="round"/>
<path d="M7.375 10L14.1251 10" stroke="black" stroke-width="1.50001" stroke-linecap="round"/>
</svg>
