<svg width="22" height="21" viewBox="0 0 22 21" fill="none" xmlns="http://www.w3.org/2000/svg">
<path d="M4.82544 13.7518L5.46224 13.7836L5.49571 13.1142L4.82545 13.1142L4.82544 13.7518ZM5.2826 6.1278L5.20721 6.76092L5.84871 6.8373L5.91665 6.19485L5.2826 6.1278ZM16.6949 6.12781L16.0609 6.19486L16.1288 6.83731L16.7703 6.76093L16.6949 6.12781ZM17.1521 13.7518V13.1142V13.7518ZM4.82544 13.7518L4.18865 13.72L4.15518 14.3894H4.82544L4.82544 13.7518ZM4.82545 13.1142C3.06484 13.1142 1.63759 11.6869 1.63759 9.92628H0.362412C0.362412 12.3912 2.36057 14.3893 4.82543 14.3894L4.82545 13.1142ZM1.63759 9.92628C1.63759 8.16564 3.06487 6.73836 4.8255 6.73836V5.46319C2.36061 5.46319 0.362412 7.46138 0.362412 9.92628H1.63759ZM4.8255 6.73836C4.95494 6.73836 5.0823 6.74604 5.20721 6.76092L5.35798 5.49468C5.18314 5.47387 5.00543 5.46319 4.8255 5.46319V6.73836ZM5.91665 6.19485C6.18751 3.63365 8.35546 1.63763 10.9888 1.63763V0.362452C7.69621 0.362452 4.98728 2.8577 4.64855 6.06075L5.91665 6.19485ZM10.9888 1.63763C13.6221 1.63763 15.79 3.63365 16.0609 6.19486L17.329 6.06076C16.9902 2.85771 14.2813 0.362452 10.9888 0.362452V1.63763ZM16.7703 6.76093C16.8953 6.74605 17.0226 6.73836 17.1521 6.73836V5.46319C16.9721 5.46319 16.7944 5.47387 16.6195 5.49469L16.7703 6.76093ZM17.1521 6.73836C18.9127 6.73836 20.34 8.16564 20.34 9.92628H21.6152C21.6152 7.46138 19.617 5.46319 17.1521 5.46319V6.73836ZM20.34 9.92628C20.34 11.6869 18.9127 13.1142 17.1521 13.1142V14.3894C19.617 14.3894 21.6152 12.3912 21.6152 9.92628H20.34ZM17.1521 13.1142L4.82544 13.1142L4.82544 14.3894L17.1521 14.3894V13.1142ZM5.46224 13.7836L5.46224 13.7836L4.18865 13.7199L4.18865 13.72L5.46224 13.7836Z" fill="black"/>
<path d="M7.37599 16.7273L6.95093 17.1524" stroke="black" stroke-width="1.27518" stroke-linecap="round"/>
<path d="M15.027 16.7273L14.6019 17.1524" stroke="black" stroke-width="1.27518" stroke-linecap="round"/>
<path d="M11.2014 16.7273L10.7764 17.1524" stroke="black" stroke-width="1.27518" stroke-linecap="round"/>
<path d="M6.52577 19.7026L6.10071 20.1277" stroke="black" stroke-width="1.27518" stroke-linecap="round"/>
<path d="M14.1769 19.7026L13.7518 20.1277" stroke="black" stroke-width="1.27518" stroke-linecap="round"/>
<path d="M10.3512 19.7026L9.92615 20.1277" stroke="black" stroke-width="1.27518" stroke-linecap="round"/>
</svg>
