<svg width="20" height="16" viewBox="0 0 20 16" fill="none" xmlns="http://www.w3.org/2000/svg">
<path d="M11.0017 3.00875C14.1695 3.00875 15.9673 5.10558 16.2283 7.63838H16.3083C16.7925 7.63772 17.2721 7.73246 17.7198 7.91719C18.1674 8.10192 18.5742 8.37302 18.917 8.715C19.2598 9.05698 19.5319 9.46315 19.7177 9.91031C19.9036 10.3575 19.9995 10.8368 20 11.3211C19.9993 11.8052 19.9033 12.2845 19.7175 12.7315C19.5316 13.1786 19.2595 13.5846 18.9167 13.9265C18.5739 14.2684 18.1671 14.5394 17.7195 14.7241C17.272 14.9087 16.7924 15.0034 16.3083 15.0028H5.69417C5.21003 15.0034 4.73049 14.9087 4.28295 14.7241C3.83541 14.5394 3.42862 14.2684 3.08582 13.9265C2.74301 13.5846 2.4709 13.1786 2.28502 12.7315C2.09914 12.2845 2.00313 11.8052 2.00247 11.3211C2.003 10.8368 2.09891 10.3575 2.28473 9.91031C2.47055 9.46315 2.74264 9.05698 3.08546 8.715C3.42828 8.37302 3.83511 8.10192 4.28272 7.91719C4.73033 7.73246 5.20994 7.63772 5.69417 7.63838H5.77416C6.03714 5.08858 7.834 3.00875 11.0017 3.00875ZM11.0017 4.50563C8.92991 4.50563 7.12505 6.1395 7.12505 8.39531C7.12505 8.75228 6.80608 9.03326 6.44111 9.03326H5.75117C4.48927 9.03326 3.46735 10.0332 3.46735 11.2691C3.46735 12.504 4.48927 13.5049 5.75017 13.5049H16.2523C17.5132 13.5049 18.5351 12.505 18.5351 11.2691C18.5351 10.0342 17.5132 9.03326 16.2523 9.03326H15.5624C15.1964 9.03326 14.8774 8.75328 14.8774 8.39531C14.8774 6.1105 13.0726 4.50563 11.0017 4.50563ZM7.99998 0C9.61685 0 11.0497 0.814933 11.8997 2.06183C11.6017 2.02621 11.3018 2.00851 11.0017 2.00884C10.6068 2.00884 10.2268 2.03783 9.86283 2.09383C9.42029 1.78017 8.90567 1.5834 8.36675 1.52178C7.82784 1.46017 7.28209 1.5357 6.78016 1.74138C6.27824 1.94706 5.83642 2.2762 5.4957 2.69827C5.15499 3.12034 4.92643 3.62165 4.83124 4.15566L4.75825 4.56963C4.71756 4.80129 4.5965 5.01119 4.41636 5.16244C4.23623 5.31368 4.00854 5.39658 3.77333 5.39656H3.28337C2.93104 5.39619 2.58651 5.50028 2.29332 5.69567C2.00014 5.89106 1.77146 6.16899 1.63619 6.49431C1.50092 6.81964 1.46514 7.17777 1.53336 7.52343C1.60158 7.86909 1.77074 8.18677 2.01947 8.43631C1.7045 8.83628 1.45452 9.29124 1.28453 9.7832C0.752943 9.37549 0.358869 8.81485 0.155251 8.17661C-0.0483666 7.53837 -0.0517725 6.8531 0.145491 6.21286C0.342754 5.57263 0.731236 5.0081 1.25874 4.59513C1.78625 4.18216 2.42752 3.94052 3.09638 3.90268L3.35336 3.89668C3.54671 2.80478 4.11835 1.81583 4.96802 1.1033C5.81768 0.39077 6.8911 0.000163336 7.99998 0Z" fill="black"/>
</svg>
