<svg width="20" height="19" viewBox="0 0 20 19" fill="none" xmlns="http://www.w3.org/2000/svg">
<path d="M4.47714 12.5909L5.05567 12.6253L5.09213 12.0114L4.47717 12.0114L4.47714 12.5909ZM4.89275 5.66101L4.82423 6.23649L5.40733 6.30592L5.46908 5.72195L4.89275 5.66101ZM15.2662 5.66103L14.6898 5.72197L14.7516 6.30595L15.3347 6.2365L15.2662 5.66103ZM15.6816 12.5909V12.0114H14.9039L15.1262 12.7566L15.6816 12.5909ZM15.6816 12.5911V13.1707H16.4593L16.237 12.4254L15.6816 12.5911ZM4.47713 12.5911L3.89861 12.5568L3.86215 13.1707H4.47713V12.5911ZM4.47717 12.0114C2.87686 12.0113 1.57958 10.714 1.57958 9.1137H0.420484C0.420484 11.3542 2.23669 13.1704 4.47712 13.1705L4.47717 12.0114ZM1.57958 9.1137C1.57958 7.51334 2.87692 6.21599 4.47728 6.21599V5.0569C2.23677 5.0569 0.420484 6.87319 0.420484 9.1137H1.57958ZM4.47728 6.21599C4.59492 6.21599 4.71069 6.22297 4.82423 6.23649L4.96127 5.08553C4.80235 5.06661 4.64083 5.0569 4.47728 5.0569V6.21599ZM5.46908 5.72195C5.71526 3.39388 7.68586 1.57955 10.0795 1.57955V0.420455C7.08662 0.420455 4.62429 2.68858 4.31641 5.60007L5.46908 5.72195ZM10.0795 1.57955C12.4731 1.57955 14.4437 3.39389 14.6898 5.72197L15.8425 5.60008C15.5346 2.68859 13.0723 0.420455 10.0795 0.420455V1.57955ZM15.3347 6.2365C15.4483 6.22298 15.5641 6.21599 15.6817 6.21599V5.0569C15.5181 5.0569 15.3566 5.06662 15.1976 5.08555L15.3347 6.2365ZM15.6817 6.21599C17.2821 6.21599 18.5794 7.51334 18.5794 9.1137H19.7385C19.7385 6.87319 17.9222 5.0569 15.6817 5.0569V6.21599ZM18.5794 9.1137C18.5794 10.7141 17.2821 12.0114 15.6817 12.0114V13.1705C17.9222 13.1705 19.7385 11.3542 19.7385 9.1137H18.5794ZM15.6817 12.0114H15.6817H15.6817H15.6817H15.6817H15.6817H15.6817H15.6817H15.6817H15.6817H15.6817H15.6817H15.6817H15.6817H15.6817H15.6817H15.6817C15.6817 12.0114 15.6817 12.0114 15.6817 12.0114C15.6817 12.0114 15.6817 12.0114 15.6817 12.0114C15.6817 12.0114 15.6817 12.0114 15.6817 12.0114C15.6817 12.0114 15.6817 12.0114 15.6817 12.0114C15.6817 12.0114 15.6817 12.0114 15.6817 12.0114C15.6817 12.0114 15.6817 12.0114 15.6817 12.0114C15.6817 12.0114 15.6817 12.0114 15.6817 12.0114C15.6817 12.0114 15.6817 12.0114 15.6817 12.0114C15.6817 12.0114 15.6817 12.0114 15.6817 12.0114C15.6817 12.0114 15.6817 12.0114 15.6817 12.0114C15.6817 12.0114 15.6817 12.0114 15.6817 12.0114C15.6817 12.0114 15.6817 12.0114 15.6817 12.0114C15.6817 12.0114 15.6817 12.0114 15.6817 12.0114C15.6817 12.0114 15.6817 12.0114 15.6817 12.0114C15.6817 12.0114 15.6817 12.0114 15.6817 12.0114C15.6817 12.0114 15.6817 12.0114 15.6817 12.0114C15.6817 12.0114 15.6817 12.0114 15.6817 12.0114C15.6817 12.0114 15.6817 12.0114 15.6817 12.0114C15.6817 12.0114 15.6817 12.0114 15.6817 12.0114C15.6817 12.0114 15.6817 12.0114 15.6817 12.0114C15.6817 12.0114 15.6817 12.0114 15.6817 12.0114C15.6817 12.0114 15.6817 12.0114 15.6817 12.0114C15.6817 12.0114 15.6817 12.0114 15.6817 12.0114C15.6817 12.0114 15.6817 12.0114 15.6817 12.0114C15.6817 12.0114 15.6817 12.0114 15.6817 12.0114C15.6817 12.0114 15.6817 12.0114 15.6817 12.0114C15.6817 12.0114 15.6817 12.0114 15.6817 12.0114C15.6817 12.0114 15.6817 12.0114 15.6817 12.0114C15.6817 12.0114 15.6817 12.0114 15.6817 12.0114C15.6817 12.0114 15.6817 12.0114 15.6817 12.0114C15.6817 12.0114 15.6817 12.0114 15.6817 12.0114H15.6817H15.6817H15.6817H15.6817H15.6817H15.6817H15.6817H15.6817H15.6817H15.6817H15.6817H15.6817C15.6817 12.0114 15.6817 12.0114 15.6817 12.0114C15.6817 12.0114 15.6817 12.0114 15.6817 12.0114C15.6817 12.0114 15.6817 12.0114 15.6817 12.0114C15.6817 12.0114 15.6817 12.0114 15.6817 12.0114C15.6817 12.0114 15.6817 12.0114 15.6817 12.0114C15.6817 12.0114 15.6817 12.0114 15.6817 12.0114C15.6817 12.0114 15.6817 12.0114 15.6817 12.0114C15.6817 12.0114 15.6817 12.0114 15.6817 12.0114C15.6817 12.0114 15.6817 12.0114 15.6817 12.0114C15.6817 12.0114 15.6817 12.0114 15.6817 12.0114C15.6817 12.0114 15.6817 12.0114 15.6817 12.0114C15.6817 12.0114 15.6817 12.0114 15.6817 12.0114C15.6817 12.0114 15.6817 12.0114 15.6817 12.0114C15.6817 12.0114 15.6817 12.0114 15.6817 12.0114C15.6817 12.0114 15.6817 12.0114 15.6817 12.0114C15.6817 12.0114 15.6817 12.0114 15.6816 12.0114C15.6816 12.0114 15.6816 12.0114 15.6816 12.0114C15.6816 12.0114 15.6816 12.0114 15.6816 12.0114C15.6816 12.0114 15.6816 12.0114 15.6816 12.0114C15.6816 12.0114 15.6816 12.0114 15.6816 12.0114C15.6816 12.0114 15.6816 12.0114 15.6816 12.0114C15.6816 12.0114 15.6816 12.0114 15.6816 12.0114H15.6816H15.6816H15.6816H15.6816H15.6816H15.6816H15.6816H15.6816H15.6816H15.6816C15.6816 12.0114 15.6816 12.0114 15.6816 12.0114C15.6816 12.0114 15.6816 12.0114 15.6816 12.0114C15.6816 12.0114 15.6816 12.0114 15.6816 12.0114C15.6816 12.0114 15.6816 12.0114 15.6816 12.0114C15.6816 12.0114 15.6816 12.0114 15.6816 12.0114C15.6816 12.0114 15.6816 12.0114 15.6816 12.0114C15.6816 12.0114 15.6816 12.0114 15.6816 12.0114C15.6816 12.0114 15.6816 12.0114 15.6816 12.0114C15.6816 12.0114 15.6816 12.0114 15.6816 12.0114C15.6816 12.0114 15.6816 12.0114 15.6816 12.0114C15.6816 12.0114 15.6816 12.0114 15.6816 12.0114C15.6816 12.0114 15.6816 12.0114 15.6816 12.0114C15.6816 12.0114 15.6816 12.0114 15.6816 12.0114C15.6816 12.0114 15.6816 12.0114 15.6816 12.0114C15.6816 12.0114 15.6816 12.0114 15.6816 12.0114C15.6816 12.0114 15.6816 12.0114 15.6816 12.0114C15.6816 12.0114 15.6816 12.0114 15.6816 12.0114C15.6816 12.0114 15.6816 12.0114 15.6816 12.0114C15.6816 12.0114 15.6816 12.0114 15.6816 12.0114C15.6816 12.0114 15.6816 12.0114 15.6816 12.0114C15.6816 12.0114 15.6816 12.0114 15.6816 12.0114C15.6816 12.0114 15.6816 12.0114 15.6816 12.0114H15.6816H15.6816H15.6816H15.6816H15.6816H15.6816H15.6816H15.6816H15.6816H15.6816H15.6816H15.6816C15.6816 12.0114 15.6816 12.0114 15.6816 12.0114C15.6816 12.0114 15.6816 12.0114 15.6816 12.0114C15.6816 12.0114 15.6816 12.0114 15.6816 12.0114C15.6816 12.0114 15.6816 12.0114 15.6816 12.0114C15.6816 12.0114 15.6816 12.0114 15.6816 12.0114C15.6816 12.0114 15.6816 12.0114 15.6816 12.0114C15.6816 12.0114 15.6816 12.0114 15.6816 12.0114C15.6816 12.0114 15.6816 12.0114 15.6816 12.0114C15.6816 12.0114 15.6816 12.0114 15.6816 12.0114C15.6816 12.0114 15.6816 12.0114 15.6816 12.0114C15.6816 12.0114 15.6816 12.0114 15.6816 12.0114C15.6816 12.0114 15.6816 12.0114 15.6816 12.0114C15.6816 12.0114 15.6816 12.0114 15.6816 12.0114C15.6816 12.0114 15.6816 12.0114 15.6816 12.0114C15.6816 12.0114 15.6816 12.0114 15.6816 12.0114C15.6816 12.0114 15.6816 12.0114 15.6816 12.0114C15.6816 12.0114 15.6816 12.0114 15.6816 12.0114C15.6816 12.0114 15.6816 12.0114 15.6816 12.0114C15.6816 12.0114 15.6816 12.0114 15.6816 12.0114C15.6816 12.0114 15.6816 12.0114 15.6816 12.0114C15.6816 12.0114 15.6816 12.0114 15.6816 12.0114C15.6816 12.0114 15.6816 12.0114 15.6816 12.0114C15.6816 12.0114 15.6816 12.0114 15.6816 12.0114C15.6816 12.0114 15.6816 12.0114 15.6816 12.0114C15.6816 12.0114 15.6816 12.0114 15.6816 12.0114C15.6816 12.0114 15.6816 12.0114 15.6816 12.0114C15.6816 12.0114 15.6816 12.0114 15.6816 12.0114C15.6816 12.0114 15.6816 12.0114 15.6816 12.0114C15.6816 12.0114 15.6816 12.0114 15.6816 12.0114C15.6816 12.0114 15.6816 12.0114 15.6816 12.0114C15.6816 12.0114 15.6816 12.0114 15.6816 12.0114H15.6816H15.6816H15.6816H15.6816H15.6816H15.6816H15.6816H15.6816H15.6816H15.6816H15.6816H15.6816H15.6816H15.6816H15.6816H15.6816V13.1705H15.6816H15.6816H15.6816H15.6816H15.6816H15.6816H15.6816H15.6816H15.6816H15.6816H15.6816H15.6816H15.6816H15.6816H15.6816H15.6816C15.6816 13.1705 15.6816 13.1705 15.6816 13.1705C15.6816 13.1705 15.6816 13.1705 15.6816 13.1705C15.6816 13.1705 15.6816 13.1705 15.6816 13.1705C15.6816 13.1705 15.6816 13.1705 15.6816 13.1705C15.6816 13.1705 15.6816 13.1705 15.6816 13.1705C15.6816 13.1705 15.6816 13.1705 15.6816 13.1705C15.6816 13.1705 15.6816 13.1705 15.6816 13.1705C15.6816 13.1705 15.6816 13.1705 15.6816 13.1705C15.6816 13.1705 15.6816 13.1705 15.6816 13.1705C15.6816 13.1705 15.6816 13.1705 15.6816 13.1705C15.6816 13.1705 15.6816 13.1705 15.6816 13.1705C15.6816 13.1705 15.6816 13.1705 15.6816 13.1705C15.6816 13.1705 15.6816 13.1705 15.6816 13.1705C15.6816 13.1705 15.6816 13.1705 15.6816 13.1705C15.6816 13.1705 15.6816 13.1705 15.6816 13.1705C15.6816 13.1705 15.6816 13.1705 15.6816 13.1705C15.6816 13.1705 15.6816 13.1705 15.6816 13.1705C15.6816 13.1705 15.6816 13.1705 15.6816 13.1705C15.6816 13.1705 15.6816 13.1705 15.6816 13.1705C15.6816 13.1705 15.6816 13.1705 15.6816 13.1705C15.6816 13.1705 15.6816 13.1705 15.6816 13.1705C15.6816 13.1705 15.6816 13.1705 15.6816 13.1705C15.6816 13.1705 15.6816 13.1705 15.6816 13.1705C15.6816 13.1705 15.6816 13.1705 15.6816 13.1705C15.6816 13.1705 15.6816 13.1705 15.6816 13.1705C15.6816 13.1705 15.6816 13.1705 15.6816 13.1705C15.6816 13.1705 15.6816 13.1705 15.6816 13.1705C15.6816 13.1705 15.6816 13.1705 15.6816 13.1705C15.6816 13.1705 15.6816 13.1705 15.6816 13.1705C15.6816 13.1705 15.6816 13.1705 15.6816 13.1705C15.6816 13.1705 15.6816 13.1705 15.6816 13.1705H15.6816H15.6816H15.6816H15.6816H15.6816H15.6816H15.6816H15.6816H15.6816H15.6816H15.6816H15.6816C15.6816 13.1705 15.6816 13.1705 15.6816 13.1705C15.6816 13.1705 15.6816 13.1705 15.6816 13.1705C15.6816 13.1705 15.6816 13.1705 15.6816 13.1705C15.6816 13.1705 15.6816 13.1705 15.6816 13.1705C15.6816 13.1705 15.6816 13.1705 15.6816 13.1705C15.6816 13.1705 15.6816 13.1705 15.6816 13.1705C15.6816 13.1705 15.6816 13.1705 15.6816 13.1705C15.6816 13.1705 15.6816 13.1705 15.6816 13.1705C15.6816 13.1705 15.6816 13.1705 15.6816 13.1705C15.6816 13.1705 15.6816 13.1705 15.6816 13.1705C15.6816 13.1705 15.6816 13.1705 15.6816 13.1705C15.6816 13.1705 15.6816 13.1705 15.6816 13.1705C15.6816 13.1705 15.6816 13.1705 15.6816 13.1705C15.6816 13.1705 15.6816 13.1705 15.6816 13.1705C15.6816 13.1705 15.6816 13.1705 15.6816 13.1705C15.6816 13.1705 15.6816 13.1705 15.6816 13.1705C15.6816 13.1705 15.6816 13.1705 15.6816 13.1705C15.6816 13.1705 15.6816 13.1705 15.6816 13.1705C15.6816 13.1705 15.6816 13.1705 15.6816 13.1705C15.6816 13.1705 15.6816 13.1705 15.6816 13.1705C15.6816 13.1705 15.6816 13.1705 15.6816 13.1705C15.6816 13.1705 15.6816 13.1705 15.6816 13.1705H15.6816H15.6816H15.6816H15.6816H15.6816H15.6816H15.6816H15.6816H15.6816H15.6816C15.6816 13.1705 15.6816 13.1705 15.6816 13.1705C15.6816 13.1705 15.6816 13.1705 15.6816 13.1705C15.6816 13.1705 15.6816 13.1705 15.6816 13.1705C15.6816 13.1705 15.6816 13.1705 15.6816 13.1705C15.6816 13.1705 15.6816 13.1705 15.6816 13.1705C15.6816 13.1705 15.6816 13.1705 15.6816 13.1705C15.6817 13.1705 15.6817 13.1705 15.6817 13.1705C15.6817 13.1705 15.6817 13.1705 15.6817 13.1705C15.6817 13.1705 15.6817 13.1705 15.6817 13.1705C15.6817 13.1705 15.6817 13.1705 15.6817 13.1705C15.6817 13.1705 15.6817 13.1705 15.6817 13.1705C15.6817 13.1705 15.6817 13.1705 15.6817 13.1705C15.6817 13.1705 15.6817 13.1705 15.6817 13.1705C15.6817 13.1705 15.6817 13.1705 15.6817 13.1705C15.6817 13.1705 15.6817 13.1705 15.6817 13.1705C15.6817 13.1705 15.6817 13.1705 15.6817 13.1705C15.6817 13.1705 15.6817 13.1705 15.6817 13.1705C15.6817 13.1705 15.6817 13.1705 15.6817 13.1705C15.6817 13.1705 15.6817 13.1705 15.6817 13.1705C15.6817 13.1705 15.6817 13.1705 15.6817 13.1705C15.6817 13.1705 15.6817 13.1705 15.6817 13.1705C15.6817 13.1705 15.6817 13.1705 15.6817 13.1705H15.6817H15.6817H15.6817H15.6817H15.6817H15.6817H15.6817H15.6817H15.6817H15.6817H15.6817H15.6817C15.6817 13.1705 15.6817 13.1705 15.6817 13.1705C15.6817 13.1705 15.6817 13.1705 15.6817 13.1705C15.6817 13.1705 15.6817 13.1705 15.6817 13.1705C15.6817 13.1705 15.6817 13.1705 15.6817 13.1705C15.6817 13.1705 15.6817 13.1705 15.6817 13.1705C15.6817 13.1705 15.6817 13.1705 15.6817 13.1705C15.6817 13.1705 15.6817 13.1705 15.6817 13.1705C15.6817 13.1705 15.6817 13.1705 15.6817 13.1705C15.6817 13.1705 15.6817 13.1705 15.6817 13.1705C15.6817 13.1705 15.6817 13.1705 15.6817 13.1705C15.6817 13.1705 15.6817 13.1705 15.6817 13.1705C15.6817 13.1705 15.6817 13.1705 15.6817 13.1705C15.6817 13.1705 15.6817 13.1705 15.6817 13.1705C15.6817 13.1705 15.6817 13.1705 15.6817 13.1705C15.6817 13.1705 15.6817 13.1705 15.6817 13.1705C15.6817 13.1705 15.6817 13.1705 15.6817 13.1705C15.6817 13.1705 15.6817 13.1705 15.6817 13.1705C15.6817 13.1705 15.6817 13.1705 15.6817 13.1705C15.6817 13.1705 15.6817 13.1705 15.6817 13.1705C15.6817 13.1705 15.6817 13.1705 15.6817 13.1705C15.6817 13.1705 15.6817 13.1705 15.6817 13.1705C15.6817 13.1705 15.6817 13.1705 15.6817 13.1705C15.6817 13.1705 15.6817 13.1705 15.6817 13.1705C15.6817 13.1705 15.6817 13.1705 15.6817 13.1705C15.6817 13.1705 15.6817 13.1705 15.6817 13.1705C15.6817 13.1705 15.6817 13.1705 15.6817 13.1705C15.6817 13.1705 15.6817 13.1705 15.6817 13.1705C15.6817 13.1705 15.6817 13.1705 15.6817 13.1705C15.6817 13.1705 15.6817 13.1705 15.6817 13.1705C15.6817 13.1705 15.6817 13.1705 15.6817 13.1705C15.6817 13.1705 15.6817 13.1705 15.6817 13.1705H15.6817H15.6817H15.6817H15.6817H15.6817H15.6817H15.6817H15.6817H15.6817H15.6817H15.6817H15.6817H15.6817H15.6817H15.6817H15.6817V12.0114ZM15.1262 12.7566L15.1263 12.7568L16.237 12.4254L16.2369 12.4253L15.1262 12.7566ZM15.6816 12.0116H4.47713V13.1707H15.6816V12.0116ZM5.05566 12.6255L5.05567 12.6253L3.89862 12.5566L3.89861 12.5568L5.05566 12.6255Z" fill="black"/>
<path d="M6.40909 15.2957L5.25 18.0002" stroke="black" stroke-width="1.15909" stroke-linecap="round"/>
<path d="M13.3637 15.2957L12.2046 18.0002" stroke="black" stroke-width="1.15909" stroke-linecap="round"/>
<path d="M9.88639 15.2957L8.72729 18.0002" stroke="black" stroke-width="1.15909" stroke-linecap="round"/>
</svg>
