<svg width="21" height="21" viewBox="0 0 21 21" fill="none" xmlns="http://www.w3.org/2000/svg">
<path d="M4.52932 12.7644L5.1165 12.7995L5.15383 12.1762L4.52932 12.1762L4.52932 12.7644ZM4.95118 5.73056L4.88161 6.31466L5.47344 6.38515L5.53615 5.79245L4.95118 5.73056ZM15.4801 5.73056L14.8951 5.79245L14.9578 6.38515L15.5496 6.31467L15.4801 5.73056ZM15.9017 12.7644V12.1762H15.1116L15.3382 12.9331L15.9017 12.7644ZM15.9018 12.7645V13.3528H16.6919L16.4653 12.5958L15.9018 12.7645ZM4.52931 12.7645L3.94212 12.7294L3.9048 13.3528H4.52931V12.7645ZM4.52932 12.1762C2.90498 12.1761 1.58819 10.8593 1.58819 9.235H0.411716C0.411716 11.5091 2.25522 13.3526 4.52931 13.3526L4.52932 12.1762ZM1.58819 9.235C1.58819 7.61064 2.90499 6.29384 4.52934 6.29384V5.11737C2.25524 5.11737 0.411716 6.9609 0.411716 9.235H1.58819ZM4.52934 6.29384C4.64879 6.29384 4.76633 6.30093 4.88161 6.31466L5.02075 5.14645C4.8594 5.12723 4.69539 5.11737 4.52934 5.11737V6.29384ZM5.53615 5.79245C5.78616 3.42962 7.78624 1.58824 10.2156 1.58824V0.411765C7.17804 0.411765 4.67887 2.7137 4.36621 5.66866L5.53615 5.79245ZM10.2156 1.58824C12.645 1.58824 14.6451 3.42962 14.8951 5.79245L16.065 5.66866C15.7524 2.7137 13.2532 0.411765 10.2156 0.411765V1.58824ZM15.5496 6.31467C15.6649 6.30094 15.7825 6.29384 15.9019 6.29384V5.11737C15.7358 5.11737 15.5718 5.12724 15.4105 5.14645L15.5496 6.31467ZM15.9019 6.29384C17.5262 6.29384 18.843 7.61064 18.843 9.235H20.0195C20.0195 6.9609 18.176 5.11737 15.9019 5.11737V6.29384ZM18.843 9.235C18.843 10.8594 17.5262 12.1762 15.9019 12.1762V13.3526C18.176 13.3526 20.0195 11.5091 20.0195 9.235H18.843ZM15.9019 12.1762C15.9019 12.1762 15.9019 12.1762 15.9019 12.1762C15.9019 12.1762 15.9019 12.1762 15.9019 12.1762C15.9019 12.1762 15.9019 12.1762 15.9019 12.1762C15.9019 12.1762 15.9019 12.1762 15.9019 12.1762H15.9019C15.9019 12.1762 15.9019 12.1762 15.9019 12.1762H15.9019C15.9019 12.1762 15.9019 12.1762 15.9019 12.1762H15.9019C15.9019 12.1762 15.9019 12.1762 15.9019 12.1762H15.9019C15.9019 12.1762 15.9019 12.1762 15.9019 12.1762H15.9019C15.9019 12.1762 15.9019 12.1762 15.9019 12.1762H15.9019C15.9019 12.1762 15.9019 12.1762 15.9019 12.1762H15.9019C15.9019 12.1762 15.9019 12.1762 15.9019 12.1762C15.9019 12.1762 15.9019 12.1762 15.9019 12.1762C15.9019 12.1762 15.9019 12.1762 15.9019 12.1762C15.9019 12.1762 15.9019 12.1762 15.9019 12.1762C15.9019 12.1762 15.9019 12.1762 15.9019 12.1762C15.9019 12.1762 15.9019 12.1762 15.9019 12.1762H15.9019C15.9019 12.1762 15.9019 12.1762 15.9019 12.1762H15.9019C15.9019 12.1762 15.9019 12.1762 15.9019 12.1762H15.9018C15.9018 12.1762 15.9018 12.1762 15.9018 12.1762H15.9018C15.9018 12.1762 15.9018 12.1762 15.9018 12.1762C15.9018 12.1762 15.9018 12.1762 15.9018 12.1762C15.9018 12.1762 15.9018 12.1762 15.9018 12.1762C15.9018 12.1762 15.9018 12.1762 15.9018 12.1762C15.9018 12.1762 15.9018 12.1762 15.9018 12.1762C15.9018 12.1762 15.9018 12.1762 15.9018 12.1762H15.9018C15.9018 12.1762 15.9018 12.1762 15.9018 12.1762H15.9018C15.9018 12.1762 15.9018 12.1762 15.9018 12.1762H15.9018C15.9018 12.1762 15.9018 12.1762 15.9018 12.1762C15.9018 12.1762 15.9018 12.1762 15.9018 12.1762C15.9018 12.1762 15.9018 12.1762 15.9018 12.1762C15.9018 12.1762 15.9018 12.1762 15.9018 12.1762C15.9018 12.1762 15.9018 12.1762 15.9018 12.1762C15.9018 12.1762 15.9018 12.1762 15.9018 12.1762H15.9018C15.9018 12.1762 15.9018 12.1762 15.9018 12.1762H15.9018C15.9018 12.1762 15.9018 12.1762 15.9018 12.1762H15.9018C15.9018 12.1762 15.9018 12.1762 15.9018 12.1762C15.9018 12.1762 15.9018 12.1762 15.9018 12.1762C15.9018 12.1762 15.9018 12.1762 15.9018 12.1762C15.9018 12.1762 15.9018 12.1762 15.9018 12.1762H15.9018C15.9018 12.1762 15.9018 12.1762 15.9018 12.1762H15.9018C15.9018 12.1762 15.9018 12.1762 15.9018 12.1762H15.9018C15.9018 12.1762 15.9018 12.1762 15.9018 12.1762H15.9018C15.9018 12.1762 15.9018 12.1762 15.9018 12.1762C15.9018 12.1762 15.9018 12.1762 15.9018 12.1762C15.9018 12.1762 15.9018 12.1762 15.9018 12.1762C15.9018 12.1762 15.9018 12.1762 15.9018 12.1762H15.9018C15.9018 12.1762 15.9018 12.1762 15.9018 12.1762H15.9018C15.9018 12.1762 15.9018 12.1762 15.9018 12.1762H15.9018C15.9018 12.1762 15.9018 12.1762 15.9018 12.1762C15.9018 12.1762 15.9018 12.1762 15.9018 12.1762C15.9018 12.1762 15.9018 12.1762 15.9018 12.1762C15.9018 12.1762 15.9018 12.1762 15.9018 12.1762H15.9018C15.9018 12.1762 15.9018 12.1762 15.9018 12.1762H15.9018C15.9018 12.1762 15.9018 12.1762 15.9018 12.1762H15.9018C15.9018 12.1762 15.9018 12.1762 15.9018 12.1762C15.9018 12.1762 15.9018 12.1762 15.9018 12.1762C15.9018 12.1762 15.9018 12.1762 15.9018 12.1762C15.9018 12.1762 15.9018 12.1762 15.9018 12.1762H15.9018C15.9018 12.1762 15.9018 12.1762 15.9018 12.1762H15.9018C15.9018 12.1762 15.9018 12.1762 15.9018 12.1762H15.9018C15.9018 12.1762 15.9018 12.1762 15.9018 12.1762H15.9018C15.9018 12.1762 15.9018 12.1762 15.9018 12.1762C15.9018 12.1762 15.9018 12.1762 15.9018 12.1762C15.9018 12.1762 15.9018 12.1762 15.9018 12.1762C15.9018 12.1762 15.9018 12.1762 15.9018 12.1762H15.9018C15.9018 12.1762 15.9018 12.1762 15.9018 12.1762H15.9018C15.9018 12.1762 15.9018 12.1762 15.9018 12.1762H15.9018C15.9018 12.1762 15.9018 12.1762 15.9018 12.1762C15.9018 12.1762 15.9018 12.1762 15.9018 12.1762C15.9018 12.1762 15.9018 12.1762 15.9018 12.1762C15.9018 12.1762 15.9018 12.1762 15.9018 12.1762C15.9018 12.1762 15.9018 12.1762 15.9018 12.1762C15.9018 12.1762 15.9018 12.1762 15.9018 12.1762H15.9018C15.9018 12.1762 15.9018 12.1762 15.9018 12.1762H15.9018C15.9018 12.1762 15.9018 12.1762 15.9018 12.1762H15.9018C15.9018 12.1762 15.9018 12.1762 15.9018 12.1762C15.9018 12.1762 15.9018 12.1762 15.9018 12.1762C15.9018 12.1762 15.9018 12.1762 15.9018 12.1762C15.9018 12.1762 15.9018 12.1762 15.9018 12.1762C15.9018 12.1762 15.9018 12.1762 15.9018 12.1762C15.9018 12.1762 15.9018 12.1762 15.9018 12.1762H15.9018C15.9018 12.1762 15.9018 12.1762 15.9018 12.1762H15.9018C15.9018 12.1762 15.9018 12.1762 15.9018 12.1762H15.9018C15.9018 12.1762 15.9018 12.1762 15.9018 12.1762H15.9018C15.9018 12.1762 15.9018 12.1762 15.9018 12.1762C15.9018 12.1762 15.9018 12.1762 15.9018 12.1762C15.9018 12.1762 15.9018 12.1762 15.9018 12.1762C15.9018 12.1762 15.9018 12.1762 15.9018 12.1762C15.9018 12.1762 15.9018 12.1762 15.9018 12.1762C15.9018 12.1762 15.9018 12.1762 15.9018 12.1762H15.9018C15.9017 12.1762 15.9017 12.1762 15.9017 12.1762H15.9017C15.9017 12.1762 15.9017 12.1762 15.9017 12.1762H15.9017C15.9017 12.1762 15.9017 12.1762 15.9017 12.1762H15.9017C15.9017 12.1762 15.9017 12.1762 15.9017 12.1762H15.9017C15.9017 12.1762 15.9017 12.1762 15.9017 12.1762H15.9017C15.9017 12.1762 15.9017 12.1762 15.9017 12.1762H15.9017C15.9017 12.1762 15.9017 12.1762 15.9017 12.1762C15.9017 12.1762 15.9017 12.1762 15.9017 12.1762C15.9017 12.1762 15.9017 12.1762 15.9017 12.1762C15.9017 12.1762 15.9017 12.1762 15.9017 12.1762V13.3526C15.9017 13.3526 15.9017 13.3526 15.9017 13.3526C15.9017 13.3526 15.9017 13.3526 15.9017 13.3526C15.9017 13.3526 15.9017 13.3526 15.9017 13.3526C15.9017 13.3526 15.9017 13.3526 15.9017 13.3526H15.9017C15.9017 13.3526 15.9017 13.3526 15.9017 13.3526H15.9017C15.9017 13.3526 15.9017 13.3526 15.9017 13.3526H15.9017C15.9017 13.3526 15.9017 13.3526 15.9017 13.3526H15.9017C15.9017 13.3526 15.9017 13.3526 15.9017 13.3526H15.9017C15.9017 13.3526 15.9017 13.3526 15.9017 13.3526H15.9017C15.9017 13.3526 15.9017 13.3526 15.9018 13.3526H15.9018C15.9018 13.3526 15.9018 13.3526 15.9018 13.3526C15.9018 13.3526 15.9018 13.3526 15.9018 13.3526C15.9018 13.3526 15.9018 13.3526 15.9018 13.3526C15.9018 13.3526 15.9018 13.3526 15.9018 13.3526C15.9018 13.3526 15.9018 13.3526 15.9018 13.3526C15.9018 13.3526 15.9018 13.3526 15.9018 13.3526H15.9018C15.9018 13.3526 15.9018 13.3526 15.9018 13.3526H15.9018C15.9018 13.3526 15.9018 13.3526 15.9018 13.3526H15.9018C15.9018 13.3526 15.9018 13.3526 15.9018 13.3526H15.9018C15.9018 13.3526 15.9018 13.3526 15.9018 13.3526C15.9018 13.3526 15.9018 13.3526 15.9018 13.3526C15.9018 13.3526 15.9018 13.3526 15.9018 13.3526C15.9018 13.3526 15.9018 13.3526 15.9018 13.3526C15.9018 13.3526 15.9018 13.3526 15.9018 13.3526C15.9018 13.3526 15.9018 13.3526 15.9018 13.3526H15.9018C15.9018 13.3526 15.9018 13.3526 15.9018 13.3526H15.9018C15.9018 13.3526 15.9018 13.3526 15.9018 13.3526H15.9018C15.9018 13.3526 15.9018 13.3526 15.9018 13.3526C15.9018 13.3526 15.9018 13.3526 15.9018 13.3526C15.9018 13.3526 15.9018 13.3526 15.9018 13.3526C15.9018 13.3526 15.9018 13.3526 15.9018 13.3526C15.9018 13.3526 15.9018 13.3526 15.9018 13.3526C15.9018 13.3526 15.9018 13.3526 15.9018 13.3526H15.9018C15.9018 13.3526 15.9018 13.3526 15.9018 13.3526H15.9018C15.9018 13.3526 15.9018 13.3526 15.9018 13.3526H15.9018C15.9018 13.3526 15.9018 13.3526 15.9018 13.3526C15.9018 13.3526 15.9018 13.3526 15.9018 13.3526C15.9018 13.3526 15.9018 13.3526 15.9018 13.3526C15.9018 13.3526 15.9018 13.3526 15.9018 13.3526H15.9018C15.9018 13.3526 15.9018 13.3526 15.9018 13.3526H15.9018C15.9018 13.3526 15.9018 13.3526 15.9018 13.3526H15.9018C15.9018 13.3526 15.9018 13.3526 15.9018 13.3526H15.9018C15.9018 13.3526 15.9018 13.3526 15.9018 13.3526C15.9018 13.3526 15.9018 13.3526 15.9018 13.3526C15.9018 13.3526 15.9018 13.3526 15.9018 13.3526C15.9018 13.3526 15.9018 13.3526 15.9018 13.3526H15.9018C15.9018 13.3526 15.9018 13.3526 15.9018 13.3526H15.9018C15.9018 13.3526 15.9018 13.3526 15.9018 13.3526H15.9018C15.9018 13.3526 15.9018 13.3526 15.9018 13.3526C15.9018 13.3526 15.9018 13.3526 15.9018 13.3526C15.9018 13.3526 15.9018 13.3526 15.9018 13.3526C15.9018 13.3526 15.9018 13.3526 15.9018 13.3526H15.9018C15.9018 13.3526 15.9018 13.3526 15.9018 13.3526H15.9018C15.9018 13.3526 15.9018 13.3526 15.9018 13.3526H15.9018C15.9018 13.3526 15.9018 13.3526 15.9018 13.3526C15.9018 13.3526 15.9018 13.3526 15.9018 13.3526C15.9018 13.3526 15.9018 13.3526 15.9018 13.3526C15.9018 13.3526 15.9018 13.3526 15.9018 13.3526H15.9018C15.9018 13.3526 15.9018 13.3526 15.9018 13.3526H15.9018C15.9018 13.3526 15.9018 13.3526 15.9018 13.3526H15.9018C15.9018 13.3526 15.9018 13.3526 15.9018 13.3526H15.9018C15.9018 13.3526 15.9018 13.3526 15.9018 13.3526C15.9018 13.3526 15.9018 13.3526 15.9018 13.3526C15.9018 13.3526 15.9018 13.3526 15.9018 13.3526C15.9018 13.3526 15.9018 13.3526 15.9018 13.3526H15.9018C15.9018 13.3526 15.9018 13.3526 15.9018 13.3526H15.9018C15.9018 13.3526 15.9018 13.3526 15.9018 13.3526H15.9018C15.9018 13.3526 15.9018 13.3526 15.9018 13.3526C15.9018 13.3526 15.9018 13.3526 15.9018 13.3526C15.9018 13.3526 15.9018 13.3526 15.9018 13.3526C15.9018 13.3526 15.9018 13.3526 15.9018 13.3526C15.9018 13.3526 15.9018 13.3526 15.9018 13.3526C15.9018 13.3526 15.9018 13.3526 15.9018 13.3526H15.9018C15.9018 13.3526 15.9018 13.3526 15.9018 13.3526H15.9018C15.9018 13.3526 15.9018 13.3526 15.9018 13.3526H15.9018C15.9018 13.3526 15.9018 13.3526 15.9018 13.3526C15.9018 13.3526 15.9018 13.3526 15.9018 13.3526C15.9018 13.3526 15.9018 13.3526 15.9018 13.3526C15.9018 13.3526 15.9018 13.3526 15.9018 13.3526C15.9018 13.3526 15.9018 13.3526 15.9018 13.3526C15.9018 13.3526 15.9018 13.3526 15.9018 13.3526H15.9018C15.9018 13.3526 15.9018 13.3526 15.9018 13.3526H15.9019C15.9019 13.3526 15.9019 13.3526 15.9019 13.3526H15.9019C15.9019 13.3526 15.9019 13.3526 15.9019 13.3526H15.9019C15.9019 13.3526 15.9019 13.3526 15.9019 13.3526C15.9019 13.3526 15.9019 13.3526 15.9019 13.3526C15.9019 13.3526 15.9019 13.3526 15.9019 13.3526C15.9019 13.3526 15.9019 13.3526 15.9019 13.3526C15.9019 13.3526 15.9019 13.3526 15.9019 13.3526C15.9019 13.3526 15.9019 13.3526 15.9019 13.3526H15.9019C15.9019 13.3526 15.9019 13.3526 15.9019 13.3526H15.9019C15.9019 13.3526 15.9019 13.3526 15.9019 13.3526H15.9019C15.9019 13.3526 15.9019 13.3526 15.9019 13.3526H15.9019C15.9019 13.3526 15.9019 13.3526 15.9019 13.3526H15.9019C15.9019 13.3526 15.9019 13.3526 15.9019 13.3526H15.9019C15.9019 13.3526 15.9019 13.3526 15.9019 13.3526H15.9019C15.9019 13.3526 15.9019 13.3526 15.9019 13.3526C15.9019 13.3526 15.9019 13.3526 15.9019 13.3526C15.9019 13.3526 15.9019 13.3526 15.9019 13.3526C15.9019 13.3526 15.9019 13.3526 15.9019 13.3526V12.1762ZM15.3382 12.9331L15.3383 12.9333L16.4653 12.5958L16.4653 12.5957L15.3382 12.9331ZM15.9018 12.1763H4.52931V13.3528H15.9018V12.1763ZM5.11649 12.7997L5.1165 12.7995L3.94213 12.7292L3.94212 12.7294L5.11649 12.7997Z" fill="black"/>
<path d="M11.2378 16.9242C11.2704 16.8526 11.3204 16.7924 11.3824 16.7504C11.4443 16.7083 11.5156 16.686 11.5884 16.686H12.3729C12.435 16.6861 12.4962 16.7024 12.5515 16.7335C12.6068 16.7647 12.6545 16.8099 12.6908 16.8653C12.7271 16.9208 12.7509 16.9849 12.7603 17.0525C12.7697 17.12 12.7643 17.1891 12.7447 17.2539L12.5251 17.9806H13.1573C13.2311 17.9807 13.3034 18.0037 13.3659 18.047C13.4283 18.0903 13.4784 18.152 13.5103 18.2252C13.5423 18.2984 13.5548 18.3801 13.5465 18.4607C13.5382 18.5414 13.5093 18.6179 13.4633 18.6813L12.6788 19.7601L11.8944 20.8388C11.8384 20.9153 11.7604 20.9685 11.6732 20.9897C11.586 21.0108 11.4949 20.9986 11.4149 20.955C11.3349 20.9114 11.2707 20.8392 11.2331 20.7501C11.1955 20.661 11.1866 20.5605 11.208 20.4652L11.4786 19.2751H10.804C10.7371 19.2751 10.6713 19.2562 10.6129 19.2204C10.5545 19.1845 10.5054 19.1329 10.4702 19.0702C10.4351 19.0076 10.4151 18.9362 10.4121 18.8627C10.4092 18.7892 10.4233 18.716 10.4533 18.6502L11.2378 16.9242Z" fill="#111111"/>
<path d="M8.10031 14.6362C8.13292 14.5451 8.18298 14.4684 8.24491 14.4149C8.30684 14.3614 8.37818 14.333 8.45096 14.333H9.23542C9.29754 14.3331 9.35875 14.3538 9.41403 14.3935C9.46931 14.4331 9.51707 14.4906 9.55337 14.5612C9.58968 14.6318 9.6135 14.7134 9.62287 14.7994C9.63223 14.8854 9.62688 14.9732 9.60725 15.0557L9.3876 15.9806H10.0199C10.0937 15.9807 10.166 16.01 10.2284 16.0651C10.2908 16.1202 10.3409 16.1988 10.3729 16.292C10.4048 16.3851 10.4174 16.489 10.409 16.5917C10.4007 16.6944 10.3719 16.7917 10.3258 16.8725L9.54136 18.2454L8.7569 19.6184C8.70092 19.7158 8.6229 19.7835 8.53572 19.8104C8.44854 19.8372 8.35742 19.8217 8.27741 19.7662C8.1974 19.7108 8.13329 19.6188 8.09567 19.5054C8.05805 19.3921 8.04917 19.2642 8.0705 19.1428L8.34114 17.6281H7.66651C7.59962 17.6281 7.53385 17.6042 7.47543 17.5586C7.41702 17.5129 7.36792 17.4471 7.33278 17.3675C7.29764 17.2878 7.27764 17.1968 7.27468 17.1033C7.27172 17.0097 7.28589 16.9166 7.31586 16.8329L8.10031 14.6362Z" fill="#111111"/>
</svg>
