<svg width="23" height="22" viewBox="0 0 23 22" fill="none" xmlns="http://www.w3.org/2000/svg">
<path d="M11.0936 11.6874C8.18775 11.6874 5.82275 9.32242 5.82275 6.41659C5.82275 3.51075 8.18775 1.14575 11.0936 1.14575C13.9994 1.14575 16.3644 3.51075 16.3644 6.41659C16.3644 9.32242 13.9994 11.6874 11.0936 11.6874ZM11.0936 2.52075C8.94859 2.52075 7.19775 4.27159 7.19775 6.41659C7.19775 8.56159 8.94859 10.3124 11.0936 10.3124C13.2386 10.3124 14.9894 8.56159 14.9894 6.41659C14.9894 4.27159 13.2386 2.52075 11.0936 2.52075Z" fill="black"/>
<path d="M18.9678 20.8539C18.592 20.8539 18.2803 20.5423 18.2803 20.1664C18.2803 17.0039 15.0536 14.4373 11.0936 14.4373C7.13365 14.4373 3.90698 17.0039 3.90698 20.1664C3.90698 20.5423 3.59532 20.8539 3.21948 20.8539C2.84365 20.8539 2.53198 20.5423 2.53198 20.1664C2.53198 16.2523 6.37281 13.0623 11.0936 13.0623C15.8145 13.0623 19.6553 16.2523 19.6553 20.1664C19.6553 20.5423 19.3436 20.8539 18.9678 20.8539Z" fill="black"/>
</svg>
