<svg width="24" height="25" viewBox="0 0 24 25" fill="none" xmlns="http://www.w3.org/2000/svg">
<path d="M12.9008 21.332C13.1892 21.332 13.4658 21.4513 13.6697 21.6636C13.8736 21.8758 13.9882 22.1638 13.9882 22.464C13.9882 22.7642 13.8736 23.0521 13.6697 23.2644C13.4658 23.4766 13.1892 23.5959 12.9008 23.5959C12.6124 23.5959 12.3358 23.4766 12.1319 23.2644C11.928 23.0521 11.8135 22.7642 11.8135 22.464C11.8135 22.1638 11.928 21.8758 12.1319 21.6636C12.3358 21.4513 12.6124 21.332 12.9008 21.332ZM9.09506 20.2001C9.38344 20.2001 9.66002 20.3194 9.86394 20.5316C10.0679 20.7439 10.1824 21.0318 10.1824 21.332C10.1824 21.6322 10.0679 21.9202 9.86394 22.1324C9.66002 22.3447 9.38344 22.464 9.09506 22.464C8.80667 22.464 8.5301 22.3447 8.32618 22.1324C8.12226 21.9202 8.0077 21.6322 8.0077 21.332C8.0077 21.0318 8.12226 20.7439 8.32618 20.5316C8.5301 20.3194 8.80667 20.2001 9.09506 20.2001ZM16.7066 20.2001C16.9949 20.2001 17.2715 20.3194 17.4754 20.5316C17.6794 20.7439 17.7939 21.0318 17.7939 21.332C17.7939 21.6322 17.6794 21.9202 17.4754 22.1324C17.2715 22.3447 16.9949 22.464 16.7066 22.464C16.4182 22.464 16.1416 22.3447 15.9377 22.1324C15.7338 21.9202 15.6192 21.6322 15.6192 21.332C15.6192 21.0318 15.7338 20.7439 15.9377 20.5316C16.1416 20.3194 16.4182 20.2001 16.7066 20.2001ZM12.9003 5.47313C16.3456 5.47313 18.3001 7.84679 18.5844 10.714H18.6714C20.8885 10.714 22.6859 12.58 22.6859 14.8823C22.6859 17.1846 20.8885 19.0506 18.6714 19.0506H7.12912C4.912 19.0506 3.1146 17.1846 3.1146 14.8823C3.1146 12.58 4.912 10.714 7.12912 10.714H7.21611C7.50208 7.82811 9.45497 5.47313 12.9003 5.47313ZM12.9003 6.88521C10.5837 6.88521 8.56443 8.83666 8.56443 11.5318C8.56443 11.9591 8.20778 12.2941 7.79893 12.2941H7.02691C5.6166 12.2941 4.47325 13.4906 4.47325 14.9661C4.47325 16.4421 5.6166 17.6385 7.02691 17.6385H18.7736C20.1839 17.6385 21.3273 16.4421 21.3273 14.9661C21.3273 13.4906 20.1839 12.2947 18.7736 12.2947H18.0016C17.5928 12.2947 17.2361 11.9591 17.2361 11.5318C17.2361 8.80214 15.2169 6.88521 12.9003 6.88521ZM3.50006 10.1667C3.56403 10.3276 3.56843 10.5075 3.51239 10.6716C3.45636 10.8358 3.34388 10.9724 3.19669 11.0552L3.13417 11.0864L1.87718 11.6308C1.71728 11.6985 1.53857 11.7 1.37764 11.635C1.21672 11.57 1.08577 11.4434 1.01162 11.2811C0.937464 11.1188 0.925721 10.9332 0.978793 10.7622C1.03187 10.5912 1.14574 10.4478 1.29708 10.3614L1.3596 10.3302L2.61659 9.78578C2.78227 9.71438 2.96841 9.7144 3.13408 9.78582C3.29975 9.85725 3.43139 9.99424 3.50006 10.1667ZM10.5679 4.71077L10.5342 4.72153C10.0318 4.89245 9.56425 5.11884 9.13692 5.39503C8.55303 5.13783 7.90571 5.08049 7.28847 5.23129C6.67122 5.38209 6.116 5.73322 5.70298 6.23397C5.28996 6.73472 5.04052 7.35917 4.99069 8.01713C4.94087 8.67509 5.09323 9.33252 5.42577 9.89445C5.01666 10.0466 4.62816 10.2532 4.26991 10.5091C3.76969 9.61728 3.58215 8.57245 3.73927 7.55278C3.8964 6.53311 4.38846 5.60177 5.13154 4.91758C5.87461 4.23339 6.82268 3.83873 7.81405 3.80091C8.80543 3.7631 9.7787 4.08503 10.5679 4.71077ZM1.79889 4.81208L1.86794 4.83812L3.12928 5.39786C3.47125 5.5484 3.63544 5.96099 3.49572 6.31925C3.36523 6.6543 3.01565 6.82296 2.69107 6.72165L2.62257 6.69618L1.36178 6.13587C1.19705 6.06271 1.06639 5.9253 0.997793 5.75308C0.929198 5.58086 0.928121 5.38752 0.994795 5.21448C1.12528 4.88 1.47432 4.71077 1.79889 4.81208ZM5.80526 1.31781L5.83516 1.38347L6.35709 2.68858C6.42393 2.85619 6.42634 3.04412 6.36383 3.21352C6.30131 3.38293 6.17865 3.52084 6.02121 3.59876C5.86377 3.67667 5.68359 3.68862 5.51792 3.63214C5.35225 3.57566 5.21376 3.45507 5.1311 3.2953L5.1012 3.23021L4.57927 1.92509C4.51164 1.75736 4.50868 1.56896 4.57099 1.39901C4.63331 1.22907 4.75611 1.09064 4.91391 1.01248C5.0717 0.934321 5.25234 0.922437 5.41833 0.979296C5.58432 1.03615 5.72289 1.15739 5.80526 1.31781ZM10.7245 1.00087C11.0518 1.14236 11.2187 1.5159 11.1213 1.86171L11.0963 1.93528L10.557 3.22342C10.4887 3.3908 10.3617 3.52481 10.2019 3.5982C10.042 3.6716 9.86134 3.67887 9.69653 3.61853C9.53173 3.5582 9.39518 3.43479 9.31466 3.2734C9.23414 3.11201 9.21569 2.92475 9.26306 2.74971L9.28806 2.67613L9.82685 1.38799C9.89661 1.21278 10.0303 1.07358 10.1987 1.00099C10.367 0.928393 10.5561 0.928352 10.7245 1.00087Z" fill="black"/>
</svg>
