<svg width="25" height="26" viewBox="0 0 25 26" fill="none" xmlns="http://www.w3.org/2000/svg">
<path d="M13.9008 22.332C14.1892 22.332 14.4658 22.4513 14.6697 22.6636C14.8736 22.8758 14.9882 23.1638 14.9882 23.464C14.9882 23.7642 14.8736 24.0521 14.6697 24.2644C14.4658 24.4766 14.1892 24.5959 13.9008 24.5959C13.6124 24.5959 13.3358 24.4766 13.1319 24.2644C12.928 24.0521 12.8135 23.7642 12.8135 23.464C12.8135 23.1638 12.928 22.8758 13.1319 22.6636C13.3358 22.4513 13.6124 22.332 13.9008 22.332ZM10.0951 21.2001C10.3834 21.2001 10.66 21.3194 10.8639 21.5316C11.0679 21.7439 11.1824 22.0318 11.1824 22.332C11.1824 22.6322 11.0679 22.9202 10.8639 23.1324C10.66 23.3447 10.3834 23.464 10.0951 23.464C9.80667 23.464 9.5301 23.3447 9.32618 23.1324C9.12226 22.9202 9.0077 22.6322 9.0077 22.332C9.0077 22.0318 9.12226 21.7439 9.32618 21.5316C9.5301 21.3194 9.80667 21.2001 10.0951 21.2001ZM17.7066 21.2001C17.9949 21.2001 18.2715 21.3194 18.4754 21.5316C18.6794 21.7439 18.7939 22.0318 18.7939 22.332C18.7939 22.6322 18.6794 22.9202 18.4754 23.1324C18.2715 23.3447 17.9949 23.464 17.7066 23.464C17.4182 23.464 17.1416 23.3447 16.9377 23.1324C16.7338 22.9202 16.6192 22.6322 16.6192 22.332C16.6192 22.0318 16.7338 21.7439 16.9377 21.5316C17.1416 21.3194 17.4182 21.2001 17.7066 21.2001ZM13.9003 6.47313C17.3456 6.47313 19.3001 8.84679 19.5844 11.714H19.6714C21.8885 11.714 23.6859 13.58 23.6859 15.8823C23.6859 18.1846 21.8885 20.0506 19.6714 20.0506H8.12912C5.912 20.0506 4.1146 18.1846 4.1146 15.8823C4.1146 13.58 5.912 11.714 8.12912 11.714H8.21611C8.50208 8.82811 10.455 6.47313 13.9003 6.47313ZM13.9003 7.88521C11.5837 7.88521 9.56443 9.83666 9.56443 12.5318C9.56443 12.9591 9.20778 13.2941 8.79893 13.2941H8.02691C6.6166 13.2941 5.47325 14.4906 5.47325 15.9661C5.47325 17.4421 6.6166 18.6385 8.02691 18.6385H19.7736C21.1839 18.6385 22.3273 17.4421 22.3273 15.9661C22.3273 14.4906 21.1839 13.2947 19.7736 13.2947H19.0016C18.5928 13.2947 18.2361 12.9591 18.2361 12.5318C18.2361 9.80214 16.2169 7.88521 13.9003 7.88521ZM4.50006 11.1667C4.56403 11.3276 4.56843 11.5075 4.51239 11.6716C4.45636 11.8358 4.34388 11.9724 4.19669 12.0552L4.13417 12.0864L2.87718 12.6308C2.71728 12.6985 2.53857 12.7 2.37764 12.635C2.21672 12.57 2.08577 12.4434 2.01162 12.2811C1.93746 12.1188 1.92572 11.9332 1.97879 11.7622C2.03187 11.5912 2.14574 11.4478 2.29708 11.3614L2.3596 11.3302L3.61659 10.7858C3.78227 10.7144 3.96841 10.7144 4.13408 10.7858C4.29975 10.8572 4.43139 10.9942 4.50006 11.1667ZM11.5679 5.71077L11.5342 5.72153C11.0318 5.89245 10.5643 6.11884 10.1369 6.39503C9.55303 6.13783 8.90571 6.08049 8.28847 6.23129C7.67122 6.38209 7.116 6.73322 6.70298 7.23397C6.28996 7.73472 6.04052 8.35917 5.99069 9.01713C5.94087 9.67509 6.09323 10.3325 6.42577 10.8944C6.01666 11.0466 5.62816 11.2532 5.26991 11.5091C4.76969 10.6173 4.58215 9.57245 4.73927 8.55278C4.8964 7.53311 5.38846 6.60177 6.13154 5.91758C6.87461 5.23339 7.82268 4.83873 8.81405 4.80091C9.80543 4.7631 10.7787 5.08503 11.5679 5.71077ZM2.79889 5.81208L2.86794 5.83812L4.12928 6.39786C4.47125 6.5484 4.63544 6.96099 4.49572 7.31925C4.36523 7.6543 4.01565 7.82296 3.69107 7.72165L3.62257 7.69618L2.36178 7.13587C2.19705 7.06271 2.06639 6.9253 1.99779 6.75308C1.9292 6.58086 1.92812 6.38752 1.99479 6.21448C2.12528 5.88 2.47432 5.71077 2.79889 5.81208ZM6.80526 2.31781L6.83516 2.38347L7.35709 3.68858C7.42393 3.85619 7.42634 4.04412 7.36383 4.21352C7.30131 4.38293 7.17865 4.52084 7.02121 4.59876C6.86377 4.67667 6.68359 4.68862 6.51792 4.63214C6.35225 4.57566 6.21376 4.45507 6.1311 4.2953L6.1012 4.23021L5.57927 2.92509C5.51164 2.75736 5.50868 2.56896 5.57099 2.39901C5.63331 2.22907 5.75611 2.09064 5.91391 2.01248C6.0717 1.93432 6.25234 1.92244 6.41833 1.9793C6.58432 2.03615 6.72289 2.15739 6.80526 2.31781ZM11.7245 2.00087C12.0518 2.14236 12.2187 2.5159 12.1213 2.86171L12.0963 2.93528L11.557 4.22342C11.4887 4.3908 11.3617 4.52481 11.2019 4.5982C11.042 4.6716 10.8613 4.67887 10.6965 4.61853C10.5317 4.5582 10.3952 4.43479 10.3147 4.2734C10.2341 4.11201 10.2157 3.92475 10.2631 3.74971L10.2881 3.67613L10.8269 2.38799C10.8966 2.21278 11.0303 2.07358 11.1987 2.00099C11.367 1.92839 11.5561 1.92835 11.7245 2.00087Z" fill="black"/>
<path d="M13.7273 7C9.8 7 8.81818 10.2654 8.81818 12.4423C5.54545 12.4423 5 14.6193 5 16.252C5 18.9731 7.72727 18.9731 8.81818 18.9731H19.1818C19.1818 18.9731 23 19.5174 23 15.7077C23 11.8981 19.1818 12.4423 19.1818 12.4423C19 10.6282 17.6545 7 13.7273 7Z" fill="black"/>
</svg>
