<svg width="41" height="41" viewBox="0 0 41 41" fill="none" xmlns="http://www.w3.org/2000/svg">
<g clip-path="url(#clip0_491_576)">
<path d="M20.0676 18.7523C23.0812 20.2312 26.7229 18.9871 28.2018 15.9735C29.6806 12.9598 28.4366 9.31815 25.4229 7.83926L20.0676 18.7523ZM20.0676 18.7523C18.5887 21.7659 19.8327 25.4076 22.8464 26.8865C25.86 28.3654 29.5017 27.1213 30.9806 24.1077L20.0676 18.7523ZM20.0676 18.7523C21.5464 15.7387 20.3024 12.097 17.2887 10.6181C14.2751 9.13921 10.6334 10.3833 9.15451 13.3969L20.0676 18.7523ZM20.0676 18.7523C17.0539 17.2734 13.4122 18.5175 11.9333 21.5311C10.4545 24.5448 11.6985 28.1864 14.7122 29.6653L20.0676 18.7523Z" stroke="#111111" stroke-width="1.62083" stroke-linejoin="round"/>
<path d="M19.7162 20.0217V35.6861" stroke="black" stroke-width="1.29667" stroke-linecap="round"/>
</g>
<defs>
<clipPath id="clip0_491_576">
<rect width="31.0854" height="31.8446" fill="white" transform="translate(11.4083 0.027832) rotate(20.1814)"/>
</clipPath>
</defs>
</svg>
