<svg width="96" height="21" viewBox="0 0 96 21" fill="none" xmlns="http://www.w3.org/2000/svg">
<path d="M14.4973 9.23863L17.7844 16.5432L22.0828 5.55825C22.4949 4.54685 22.6916 3.82576 22.6728 3.39498C22.6728 2.94547 22.4387 2.67389 21.9705 2.58024L20.8186 2.35549V1.7655C21.0059 1.82169 21.7176 1.84979 22.9538 1.84979C23.5906 1.84979 24.1337 1.84979 24.5832 1.84979C25.0328 1.83106 25.3324 1.80296 25.4823 1.7655V2.35549L24.6394 2.60834C24.3585 2.70198 24.1431 2.84246 23.9933 3.02975C23.8434 3.19832 23.6936 3.47927 23.5437 3.87259L17.4473 20.0269H16.5201L13.0645 12.2728L9.27177 20.0269H8.51322L2.22007 4.46257C2.0515 4.06925 1.90166 3.76021 1.77055 3.53545C1.65818 3.29197 1.5458 3.11404 1.43342 3.00166C1.33977 2.87055 1.23676 2.7769 1.12438 2.72071C1.03073 2.66453 0.918356 2.60834 0.787249 2.55215L0.169171 2.35549V1.7655C0.637412 1.82169 1.50834 1.84979 2.78195 1.84979C4.0743 1.84979 5.0576 1.82169 5.73187 1.7655V2.35549L4.88904 2.55215C4.7392 2.58961 4.66428 2.67389 4.66428 2.805C4.66428 2.93611 4.71111 3.13277 4.80475 3.39498C4.91713 3.6572 5.07633 4.05052 5.28236 4.57495L10.1146 16.7398L12.615 11.4862L9.69319 4.85589C9.3186 4.01306 9.01892 3.44181 8.79417 3.14213C8.56941 2.82373 8.33529 2.63643 8.0918 2.58024L7.0804 2.35549V1.7655C7.60483 1.82169 8.70052 1.84979 10.3675 1.84979C12.0157 1.84979 13.0552 1.82169 13.4859 1.7655V2.35549L12.3622 2.58024C12.0999 2.63643 11.9501 2.76754 11.9126 2.97356C11.9126 3.06721 11.9501 3.24514 12.025 3.50736C12.0999 3.75084 12.2404 4.11607 12.4464 4.60304L14.0759 8.45198L16.1549 3.87259C16.3047 3.57291 16.3235 3.2826 16.2111 3.00166C16.1175 2.72071 15.9302 2.56151 15.6492 2.52405L14.694 2.35549V1.7655C15.1622 1.82169 16.0425 1.84979 17.3349 1.84979C18.6085 1.84979 19.4326 1.82169 19.8072 1.7655V2.35549L18.4867 2.60834C17.8499 2.73944 17.363 3.17023 17.0258 3.90068L14.4973 9.23863ZM36.4775 12.6381H29.1449C29.1074 12.8254 29.0793 12.9658 29.0606 13.0595C29.0606 13.1531 29.0606 13.2936 29.0606 13.4809C29.0606 14.1364 29.1542 14.7358 29.3415 15.2789C29.5288 15.8221 29.791 16.2903 30.1282 16.6837C30.4653 17.077 30.868 17.386 31.3362 17.6108C31.8232 17.8168 32.3664 17.9198 32.9657 17.9198C33.6212 17.9198 34.2206 17.8168 34.7637 17.6108C35.3256 17.386 35.9156 16.974 36.5337 16.3746L36.6461 16.9084C36.3839 17.3205 36.0842 17.7044 35.7471 18.0603C35.4286 18.4161 35.0634 18.7345 34.6514 19.0155C34.2393 19.2777 33.7711 19.4837 33.2466 19.6336C32.7222 19.7834 32.1322 19.8583 31.4767 19.8583C30.7275 19.8583 30.0439 19.7179 29.4258 19.4369C28.8077 19.156 28.2739 18.7626 27.8244 18.2569C27.3749 17.7325 27.019 17.1144 26.7568 16.4027C26.5133 15.691 26.3916 14.9137 26.3916 14.0709C26.3916 13.2093 26.5227 12.4227 26.7849 11.7109C27.0659 10.9992 27.4498 10.3811 27.9368 9.8567C28.4238 9.33227 29.0138 8.92959 29.7067 8.64864C30.3997 8.34897 31.1677 8.19913 32.0105 8.19913C32.7409 8.19913 33.3778 8.31151 33.9209 8.53627C34.4641 8.76102 34.9136 9.07942 35.2694 9.49148C35.644 9.8848 35.925 10.353 36.1123 10.8962C36.3183 11.4394 36.4401 12.02 36.4775 12.6381ZM29.2853 11.7671H32.6005C32.9751 11.7671 33.256 11.7203 33.4433 11.6267C33.6493 11.533 33.7243 11.2989 33.6681 10.9243C33.6119 10.3999 33.4527 9.95035 33.1905 9.57576C32.947 9.18244 32.5256 8.98578 31.9262 8.98578C31.2519 8.98578 30.6901 9.22926 30.2405 9.71623C29.791 10.1845 29.4726 10.8681 29.2853 11.7671ZM42.8481 19.774C42.0802 19.774 41.4153 19.6429 40.8534 19.3807C40.2916 19.0998 39.8233 18.7252 39.4487 18.2569C39.0929 17.7887 38.8213 17.2362 38.634 16.5994C38.4654 15.9626 38.3811 15.2789 38.3811 14.5485C38.3811 13.5558 38.5403 12.6849 38.8587 11.9357C39.1771 11.1678 39.5892 10.5216 40.0949 9.99718C40.6193 9.47275 41.2187 9.07942 41.8929 8.81721C42.5859 8.55499 43.2977 8.42389 44.0281 8.42389C44.4776 8.42389 44.8803 8.46135 45.2362 8.53627C45.592 8.61118 45.9011 8.69547 46.1633 8.78912C46.463 8.88276 46.7345 8.99514 46.978 9.12625L48.6918 8.19913L48.9446 8.28341C48.9446 9.74433 48.9446 11.1959 48.9446 12.6381C48.9634 14.0615 48.9727 15.5037 48.9727 16.9646C48.9727 17.7138 49.2911 18.0696 49.9279 18.0322C50.0778 18.0322 50.1995 18.0135 50.2932 17.976C50.3868 17.9198 50.4711 17.873 50.546 17.8355C50.6209 17.7793 50.6959 17.7138 50.7708 17.6389L50.9674 17.9198C50.8176 18.2757 50.6303 18.5847 50.4056 18.8469C50.1995 19.0904 49.9467 19.3058 49.647 19.4931C49.3473 19.6804 48.9727 19.774 48.5232 19.774C47.7928 19.774 47.2683 19.5493 46.9499 19.0998C46.6315 18.6503 46.4723 18.0696 46.4723 17.3579V16.6275C46.36 17.0208 46.2101 17.4141 46.0228 17.8074C45.8355 18.182 45.592 18.5192 45.2924 18.8188C45.0114 19.0998 44.6649 19.3339 44.2529 19.5212C43.8595 19.6898 43.3913 19.774 42.8481 19.774ZM46.4723 13.4247C46.4723 12.919 46.4349 12.432 46.36 11.9638C46.3038 11.4955 46.182 11.0835 45.9947 10.7276C45.8074 10.353 45.5546 10.0534 45.2362 9.82861C44.9178 9.60385 44.4964 9.49148 43.9719 9.49148C43.6535 9.49148 43.3164 9.56639 42.9605 9.71623C42.6047 9.86607 42.2769 10.1096 41.9772 10.4467C41.6775 10.7838 41.4341 11.2333 41.2468 11.7952C41.0595 12.3571 40.9658 13.0407 40.9658 13.8461C40.9658 14.4455 41.022 15.0167 41.1344 15.5599C41.2655 16.0843 41.4434 16.5432 41.6682 16.9365C41.9117 17.3298 42.202 17.6482 42.5391 17.8917C42.895 18.1165 43.2977 18.2288 43.7472 18.2288C44.1592 18.2288 44.5338 18.1071 44.8709 17.8636C45.2081 17.6201 45.489 17.3017 45.7138 16.9084C45.9573 16.4964 46.1446 16.0188 46.2757 15.4756C46.4068 14.9324 46.4723 14.3518 46.4723 13.7337V13.4247ZM56.1662 5.86729H56.6719C56.6719 6.37299 56.6719 6.87869 56.6719 7.38439C56.6907 7.87136 56.7 8.3677 56.7 8.8734L60.3242 8.78912V9.99718L56.7 10.1096V15.4194C56.7 16.3559 56.7843 17.0676 56.9529 17.5546C57.1402 18.0228 57.5803 18.2382 58.2733 18.2008C58.5543 18.2008 58.8633 18.1633 59.2004 18.0884C59.5563 17.9947 59.9496 17.7887 60.3804 17.4703L60.6332 17.8636C60.3148 18.3506 59.856 18.8095 59.2566 19.2402C58.676 19.6523 57.8894 19.8583 56.8967 19.8583C55.904 19.8583 55.1829 19.6055 54.7334 19.0998C54.3026 18.5753 54.0872 17.6482 54.0872 16.3184V10.1657C53.825 10.1657 53.5722 10.1751 53.3287 10.1938C53.0852 10.1938 52.8324 10.1938 52.5701 10.1938C52.3079 10.1938 52.1675 10.0908 52.1487 9.8848C52.1487 9.67877 52.2798 9.51957 52.542 9.40719C52.9354 9.23863 53.2912 9.06069 53.6096 8.8734C53.9468 8.6861 54.2183 8.48944 54.4244 8.28341C54.6304 8.07739 54.9207 7.76835 55.2953 7.3563C55.6699 6.94425 55.9602 6.44791 56.1662 5.86729ZM63.2743 4.04115C63.2743 3.51672 63.1245 3.1515 62.8248 2.94547C62.5252 2.72071 62.0476 2.53342 61.392 2.38358V1.87788C61.5793 1.87788 61.8228 1.84979 62.1225 1.7936C62.4409 1.73741 62.778 1.67186 63.1339 1.59694C63.4897 1.50329 63.8456 1.40028 64.2015 1.2879C64.5761 1.15679 64.9132 1.01632 65.2129 0.866482H65.8871V10.6714C66.4677 9.90353 67.0577 9.32291 67.6571 8.92959C68.2752 8.51754 68.9681 8.28342 69.7361 8.22723C69.8859 8.22723 70.0357 8.22723 70.1856 8.22723C70.3354 8.22723 70.4852 8.23659 70.6351 8.25532C71.5528 8.33024 72.2739 8.6861 72.7984 9.32291C73.3228 9.95972 73.585 10.8587 73.585 12.02V17.7512C73.585 17.9385 73.6225 18.1071 73.6974 18.2569C73.7723 18.4068 73.969 18.5285 74.2874 18.6222L75.2426 18.9031V19.5212C74.662 19.4837 74.1094 19.4556 73.585 19.4369C73.0793 19.4182 72.6579 19.4088 72.3208 19.4088C72.0023 19.4088 71.5622 19.4182 71.0003 19.4369C70.4572 19.4556 69.8953 19.4837 69.3146 19.5212V18.9031L70.298 18.5941C70.5602 18.5004 70.7381 18.3881 70.8317 18.2569C70.9254 18.1071 70.9722 17.873 70.9722 17.5546V12.2447C70.9722 11.5517 70.813 11.0086 70.4946 10.6153C70.1762 10.2219 69.6611 10.0253 68.9494 10.0253C68.2377 10.0253 67.629 10.2407 67.1233 10.6714C66.6363 11.1022 66.2243 11.5798 65.8871 12.1043V17.5546C65.8871 17.7606 65.9246 17.9385 65.9995 18.0884C66.0744 18.2382 66.2149 18.3506 66.4209 18.4255L67.9099 18.9031V19.5212C67.6103 19.4837 67.1701 19.4556 66.5895 19.4369C66.0089 19.4182 65.3627 19.4088 64.651 19.4088C63.958 19.4088 63.3399 19.4182 62.7967 19.4369C62.2723 19.4556 61.8603 19.4837 61.5606 19.5212V18.9031L62.6844 18.5941C62.9278 18.5192 63.087 18.4068 63.162 18.2569C63.2369 18.1071 63.2743 17.9198 63.2743 17.6951V4.04115ZM76.3453 19.5212V19.0717L77.4129 18.8188C77.7875 18.7065 78.0216 18.566 78.1152 18.3974C78.2276 18.2101 78.2838 17.873 78.2838 17.386V11.9919C78.2838 11.6173 78.2089 11.3457 78.059 11.1771C77.9092 10.9898 77.5533 10.8494 76.9915 10.7557L76.4015 10.6433L76.4296 10.1657C77.16 9.95972 77.8811 9.65068 78.5928 9.23863C79.3046 8.82657 79.8758 8.26469 80.3066 7.55296H80.8123L80.9247 10.8681C81.0745 10.531 81.2431 10.2313 81.4304 9.96908C81.6177 9.68814 81.8705 9.3791 82.1889 9.04197C82.5073 8.70483 82.807 8.48008 83.0879 8.3677C83.3876 8.25532 83.6592 8.19913 83.9027 8.19913C84.3709 8.19913 84.7549 8.3396 85.0546 8.62055C85.373 8.88276 85.5322 9.28545 85.5322 9.82861C85.5322 10.3343 85.4104 10.737 85.1669 11.0367C84.9422 11.3176 84.6144 11.4581 84.1836 11.4581C83.9589 11.4581 83.7622 11.4113 83.5937 11.3176C83.4251 11.2052 83.2659 11.0835 83.116 10.9524C82.9849 10.8213 82.8538 10.7089 82.7227 10.6153C82.5916 10.5029 82.4699 10.4467 82.3575 10.4467C82.1889 10.4467 82.0297 10.5216 81.8799 10.6714C81.7301 10.8026 81.5896 10.9711 81.4585 11.1771C81.3274 11.3832 81.215 11.6173 81.1213 11.8795C81.0464 12.123 80.9996 12.3571 80.9809 12.5819C80.9621 12.7692 80.9434 12.9377 80.9247 13.0876C80.9059 13.2374 80.9059 13.3779 80.9247 13.509V17.4422C80.9247 17.9104 81.009 18.2195 81.1775 18.3693C81.3461 18.5004 81.6832 18.6315 82.1889 18.7626L83.6217 19.0436V19.4931C83.1722 19.4556 82.6665 19.4369 82.1046 19.4369C81.5428 19.4182 80.9715 19.4088 80.3909 19.4088H79.8571C79.239 19.4088 78.6303 19.4182 78.0309 19.4369C77.4316 19.4556 76.8697 19.4837 76.3453 19.5212ZM86.7435 19.5212V19.0717L87.8111 18.8188C88.1857 18.7065 88.4198 18.566 88.5135 18.3974C88.6258 18.2101 88.682 17.873 88.682 17.386V11.9919C88.682 11.6173 88.6071 11.3457 88.4573 11.1771C88.3074 10.9898 87.9516 10.8494 87.3897 10.7557L86.7997 10.6433L86.8278 10.1657C87.5583 9.95972 88.2793 9.65068 88.9911 9.23863C89.7028 8.82657 90.274 8.26469 90.7048 7.55296H91.2105L91.3229 10.8681C91.4727 10.531 91.6413 10.2313 91.8286 9.96908C92.0159 9.68814 92.2688 9.3791 92.5872 9.04197C92.9056 8.70483 93.2052 8.48008 93.4862 8.3677C93.7859 8.25532 94.0574 8.19913 94.3009 8.19913C94.7692 8.19913 95.1531 8.3396 95.4528 8.62055C95.7712 8.88276 95.9304 9.28545 95.9304 9.82861C95.9304 10.3343 95.8087 10.737 95.5652 11.0367C95.3404 11.3176 95.0126 11.4581 94.5819 11.4581C94.3571 11.4581 94.1604 11.4113 93.9919 11.3176C93.8233 11.2052 93.6641 11.0835 93.5143 10.9524C93.3832 10.8213 93.2521 10.7089 93.121 10.6153C92.9898 10.5029 92.8681 10.4467 92.7557 10.4467C92.5872 10.4467 92.428 10.5216 92.2781 10.6714C92.1283 10.8026 91.9878 10.9711 91.8567 11.1771C91.7256 11.3832 91.6132 11.6173 91.5196 11.8795C91.4447 12.123 91.3978 12.3571 91.3791 12.5819C91.3604 12.7692 91.3416 12.9377 91.3229 13.0876C91.3042 13.2374 91.3042 13.3779 91.3229 13.509V17.4422C91.3229 17.9104 91.4072 18.2195 91.5758 18.3693C91.7443 18.5004 92.0815 18.6315 92.5872 18.7626L94.02 19.0436V19.4931C93.5705 19.4556 93.0648 19.4369 92.5029 19.4369C91.941 19.4182 91.3697 19.4088 90.7891 19.4088H90.2553C89.6372 19.4088 89.0285 19.4182 88.4292 19.4369C87.8298 19.4556 87.2679 19.4837 86.7435 19.5212Z" fill="black"/>
</svg>
